<?xml version="1.0" encoding="utf-8"?>
<!-- Generator: Adobe Illustrator 27.3.1, SVG Export Plug-In . SVG Version: 6.00 Build 0)  -->
<svg version="1.1" id="Layer_1" xmlns="http://www.w3.org/2000/svg" xmlns:xlink="http://www.w3.org/1999/xlink" x="0px" y="0px"
	 viewBox="0 0 926.1 181.4" style="enable-background:new 0 0 926.1 181.4;" xml:space="preserve">
<style type="text/css">
	.st0{fill:#A01D27;}
	.st1{fill:#FFFFFF;}
	.st2{enable-background:new    ;}
</style>
<rect x="194.3" y="15.5" class="st0" width="5" height="149.4"/>
<path class="st0" d="M151.7,12.7v92.6c0,42-34,76.1-75.8,76.1S0,147.4,0,105.4V12.7C0,5.7,5.7,0,12.7,0H139
	C146,0,151.7,5.7,151.7,12.7z"/>
<path class="st1" d="M49.9,27.4c-0.8-0.4-0.8-0.6-0.9-0.7c-0.3-0.2-1.1-0.1-2.8-1.3s-1.8-0.1-2.5-0.4s-1.3-0.9-1.3-0.9
	s-0.1,1,0.5,1.7c0.2,0.2,0.3,0.5,0.3,0.5s0.1,0.1,0.1,0.3c0,0.5-1.1-0.3-1.1-0.3c-0.1,1,1,1.8,1,2c0.1,0.2,0.4,0.3,0.4,0.3
	s-0.1,0.3-0.2,0.4c-0.2,0.2-0.7,0.5-0.7,0.5s1.1,0,1.4,0.1s1,0.6,1.9,0.8s1.5-0.4,1.8-0.2c0.3,0.1,0.8,0.1,0.8,0.1s0.2,0,0.2-0.4
	s0.2-0.8,0.4-1.6c0.2-0.7,0.2-0.5,0.7-0.5C50.2,27.9,50.4,27.6,49.9,27.4L49.9,27.4z M46.6,33.1c0,0,1.5,0.8,2.5,1.2
	c0.5,0.2,1.1,0.7,1.4,0.7s0.9-0.4,1.4-0.8s2.2-1,2.2-1s-1.4-1.4-1.6-2c-0.2-0.6-0.4-1.9-0.4-1.9s0-1.2,0.1-1.3v0
	c0.2-0.1,0.3-0.1,0.3,0.4c0,0.7,0.3,1.2,0.4,1.6s0.1,1,0.1,1s0.5-0.3,0.8-0.5c0.3-0.1,1,0.1,1.9-0.1c0.8-0.1,1.7-0.7,2-0.8
	s1-0.1,1-0.1s-0.1-0.3-0.3-0.5c-0.1-0.1-0.1-0.3-0.1-0.3s0.1-0.2,0.1-0.4c0.1-0.1,1.1-0.5,1-1.6c0,0-0.9,0.1-1-0.1
	c0-0.1,0-0.2,0-0.2s0.2-0.3,0.3-0.5c0.2-0.2,0.2-1.4,0.2-1.4s-0.4,0.4-1.1,0.5c-0.7,0.2-0.7-0.7-2.5,0.4c-1.8,1-2.9,1.2-3.2,1.5
	c-0.2,0.3-0.8,0.7-0.8,0.7c-0.5,0.1,0,0.5,0.3,0.5c-0.2,0.4-0.1,2-0.1,2c0,1.3,1,2.8,1,2.8c-0.2,0-1.9,1-2.3,1
	c-0.2,0-2.1-0.9-2.6-0.9c0,0,0.6-0.8,0.8-1.3l-0.5,0L46.6,33.1L46.6,33.1z M48.2,28.9c-0.2,0.4-0.9,1-1.8,1c-0.9,0-1.9-0.8-2.1-1.7
	c-0.2-0.8-0.2-1.8,0.9-2.1c1-0.2,1.5,0.7,1.8,1.1c0.3,0.3,1.3,0.5,1.3,0.5C48.7,27.8,48.4,28.4,48.2,28.9L48.2,28.9z M53.1,27.6
	c0,0,0.8-0.2,1.1-0.6c0.4-0.4,1-1.2,2.3-0.9c1.2,0.2,0.8,1.2,0.7,2C57,29,55.9,29.5,55,29.5c-0.9,0-1.5-0.2-1.7-0.7
	C53,28.4,52.7,27.8,53.1,27.6L53.1,27.6z M40.1,24.7c-0.1-0.1-2.7-3-2.8-4.9c0-0.7,0.3-3.9,4-3.3c1,0.2,1.7,0.8,2.5,1.7
	c0.9,1,0.6,0.9,0.6,0.9s0.4-2.6,1.9-2.9c1.3-0.2,1.7,3.2,1.7,3.2c0.1,1.3,0.3-4,2.3-4c1.6,0,2,4.8,2,4.4c0,0,0.2-3.6,1.9-3.6
	c1.9,0,1.3,3.9,1.3,3.9s0.3-0.6,1-1.8c0.7-1.4,2.8-2,3.9-1.6c1.7,0.7,2.8,2.1,2.4,3.7c-0.5,2-2.5,3.7-2.5,3.7s0,0.5,0.1,2.3
	c0.1,1.8-1.8,3.9-1.8,3.9s1.5-0.5,2,1.2s0,3.7-2.8,6.3c-1.2,1.2-2.8,2-4.2,2.5l-0.1-1.7c0,0,0,0,0,0c0,0,0,0,0,0
	c4.2-0.9,4.6-4.9,4.6-4.9s-0.5,0.4-0.8,0.7c-0.4,0.3-0.2-1.3-0.6-1c0,0-0.6,3.3-3.4,3.5s-2.5-1.8-2.5-1.8l-0.6,0
	c0,1.6-2.6,1.6-2.6,1.6c-1.5-0.3-2.9-1.2-3.3-3c0-0.2-0.6,0.9-0.6,0.9c-0.6-0.1-1-0.4-1-0.4c0.8,2.7,3,3.9,4.7,4.5l-0.1,1.7
	c-1.5-0.5-3.5-1.3-4.9-2.8c-2.7-2.6-3.2-4.6-2.8-6.3s2-1.2,2-1.2c-0.6-0.6-1.5-0.2-1.5-0.2c-1.4,0.8-0.9,2.3-0.9,2.3
	s-0.2,0.1-0.8-0.2c-0.7-0.4-1.4-1.2-1.4-1.2s0.9-2.2,1.7-2.3s1.8-0.2,1.8-0.2l-0.3-0.2c0,0-2-0.4-2.9-0.7c-1.4-0.5-1.6-2.6-1.6-2.6
	c1-0.7,0.5-0.5,2.1-1.1c0.8-0.3,2.2,0.6,2.2,0.6L40.1,24.7L40.1,24.7z M59.1,20.8c0.8,0.4,0,2.8,0,2.8s1.4-1,2-2.4
	c0.6-1.3-0.5-3.2-2-3.1c-2,0.1-2.7,3.1-2.7,3.1C57.1,20.3,58.3,20.5,59.1,20.8L59.1,20.8z M44,21.3c0,0-1.1-2.9-3.2-3
	c0,0-2.9,0.2-1.6,3.3c0,0,0.1,0.5,1.2,1.6c0,0,1.5,1.3,1.1,0.2c-0.4-1.1-1.4-2.4-0.6-2.9c0.9-0.5,1.4-0.2,2,0.2
	C43,20.7,43.6,21.2,44,21.3L44,21.3z M46.4,18.3c0,0-0.7,0.2-0.8,2.1c0,0,0.7-0.3,1.5-0.1C47.1,20.3,47.1,18.5,46.4,18.3z
	 M51.3,20.3c-0.2-2.8-1.2-2.7-1.2-2.7c-1,0.4-1,2.7-1,2.7C50.2,20,51.3,20.3,51.3,20.3z M54.7,20.3c0,0,0.2-2.2-0.5-2.3
	c-0.7-0.1-0.8,2.2-0.8,2.2C54.3,20,54.7,20.3,54.7,20.3z M47.2,28.1c0,0-0.4-0.1-0.5-0.2c-0.1-0.1-0.3-0.5-0.7-0.4
	c-0.4,0.1-0.4,0.5-0.3,0.8s0.4,0.6,0.8,0.6c0.3,0,0.6-0.2,0.7-0.4C47.2,28.4,47.3,28.2,47.2,28.1L47.2,28.1z M54.3,28.4
	c0.1,0.2,0.3,0.3,0.7,0.2c0.3,0,0.8-0.2,0.8-0.5c0.1-0.3,0.2-0.7-0.2-0.8c-0.5-0.1-0.8,0.2-0.9,0.3c-0.1,0.1-0.4,0.2-0.4,0.2
	C54.1,28,54.2,28.2,54.3,28.4L54.3,28.4z M59.5,30c2.2-2,1.3-5.6,1.3-5.6s0.9-0.7,1.7-0.4c1.5,0.6,1,0.4,2.1,1.1
	c0,0-0.2,2.1-1.6,2.6c-1.4,0.5,0.3,0-1.1,0.3l-1,0.4c0,0,0.4,0.3,1.1,0.6c0.6,0.3,1.4,2.1,1.4,2.1s-0.7,0.8-1.4,1.2
	c-0.5,0.3-0.8,0.2-0.8,0.2s0.2-1.6-0.5-2c0,0-0.7-0.5-1.1-0.4L59.5,30L59.5,30z"/>
<path class="st1" d="M48.8,38.8c0,0-0.5,1.6,0,3c0.3,0.9,0.7,1.3,1.1,1.5V38C49.4,38.4,48.8,38.8,48.8,38.8z"/>
<path class="st1" d="M52.2,38.8c0,0-0.7-0.6-1.2-1v5.7c0.5-0.1,1-0.5,1.3-1.6C52.8,40.5,52.2,38.8,52.2,38.8L52.2,38.8z"/>
<path class="st1" d="M52.6,74c-0.8-0.4-0.8-0.6-0.9-0.7c-0.3-0.2-1.1-0.1-2.7-1.2c-1.6-1.1-1.8-0.1-2.4-0.3s-1.3-0.8-1.3-0.8
	s-0.1,1,0.4,1.6c0.2,0.2,0.3,0.5,0.3,0.5s0.1,0.1,0.1,0.2c0,0.5-1.1-0.3-1.1-0.3c-0.1,1,0.9,1.7,1,1.9c0.1,0.2,0.4,0.3,0.4,0.3
	s-0.1,0.3-0.2,0.4c-0.2,0.2-0.7,0.4-0.7,0.4s1,0,1.4,0.1c0.3,0.1,1,0.6,1.8,0.7c0.8,0.1,1.4-0.3,1.7-0.2c0.3,0.1,0.8,0.1,0.8,0.1
	s0.1,0,0.2-0.3c0-0.3,0.2-0.8,0.4-1.5c0.2-0.6,0.2-0.4,0.7-0.4C52.8,74.5,53,74.1,52.6,74z M49.4,79.4c0,0,1.5,0.8,2.3,1.2
	c0.5,0.2,1.1,0.6,1.3,0.6s0.8-0.4,1.3-0.7c0.4-0.3,2.1-1,2.1-1s-1.3-1.3-1.5-1.9c-0.2-0.6-0.4-1.8-0.4-1.8s0-1.2,0.1-1.3v0
	c0.2-0.1,0.3-0.1,0.3,0.3c0,0.7,0.3,1.2,0.4,1.5s0.1,0.9,0.1,0.9s0.4-0.3,0.7-0.4c0.3-0.1,1,0.1,1.8-0.1s1.6-0.7,1.9-0.8
	c0.3-0.1,0.9-0.1,0.9-0.1s-0.1-0.3-0.3-0.5c-0.1-0.1,0-0.3,0-0.3s0.1-0.2,0.1-0.3c0.1-0.1,1-0.5,1-1.5c0,0-0.9,0.1-0.9-0.1
	c0-0.1,0-0.2,0-0.2s0.2-0.3,0.3-0.5c0.1-0.2,0.2-1.3,0.2-1.3s-0.4,0.3-1,0.5c-0.7,0.2-0.7-0.6-2.4,0.3c-1.7,1-2.8,1.2-3,1.4
	c-0.2,0.3-0.7,0.6-0.7,0.6c-0.4,0.1,0,0.5,0.3,0.5c-0.2,0.4-0.1,1.9-0.1,1.9c0,1.2,0.9,2.6,0.9,2.6c-0.2,0-1.8,1-2.2,0.9
	c-0.2,0-2-0.9-2.5-0.9c0,0,0.6-0.8,0.8-1.3l-0.5,0C50.8,77.9,49.4,79.4,49.4,79.4z M50.9,75.4c-0.2,0.4-0.8,1-1.7,0.9
	c-0.9,0-1.8-0.8-2-1.6c-0.2-0.8-0.2-1.8,0.9-2c1-0.2,1.4,0.7,1.7,1c0.3,0.3,1.3,0.5,1.3,0.5C51.4,74.3,51.2,74.9,50.9,75.4
	L50.9,75.4z M55.6,74.2c0,0,0.7-0.2,1-0.5c0.3-0.3,0.9-1.1,2.2-0.8c1.1,0.2,0.8,1.1,0.6,1.9c-0.2,0.8-1.2,1.2-2.1,1.3
	c-0.9,0-1.4-0.2-1.6-0.6C55.5,74.9,55.3,74.3,55.6,74.2L55.6,74.2z M43.3,71.4c-0.1-0.1-2.6-2.8-2.7-4.7c0-0.7,0.3-3.7,3.8-3.1
	c1,0.2,1.6,0.8,2.4,1.7c0.8,0.9,0.5,0.9,0.5,0.9s0.4-2.5,1.8-2.7c1.3-0.2,1.6,3,1.6,3c0.1,1.3,0.2-3.8,2.1-3.8
	c1.5,0,1.9,4.6,1.9,4.2c0,0,0.2-3.5,1.8-3.5c1.8,0,1.3,3.8,1.3,3.8s0.3-0.6,0.9-1.7c0.7-1.3,2.7-1.9,3.7-1.5c1.6,0.6,2.7,2,2.3,3.5
	c-0.4,1.9-2.3,3.5-2.3,3.5s0,0.4,0.1,2.2c0.1,1.8-1.7,3.7-1.7,3.7s1.4-0.5,1.8,1.2s0,3.5-2.6,6c-1.2,1.1-2.7,1.9-4,2.4l-0.1-1.6
	c0,0,0,0,0,0c0,0,0,0,0,0c4-0.9,4.4-4.7,4.4-4.7s-0.4,0.4-0.8,0.7c-0.4,0.3-0.2-1.2-0.6-0.9c0,0-0.6,3.1-3.2,3.3s-2.4-1.8-2.4-1.8
	l-0.5,0c0,1.5-2.4,1.5-2.4,1.5c-1.4-0.3-2.8-1.1-3.1-2.8c0-0.2-0.6,0.8-0.6,0.8c-0.6-0.1-0.9-0.4-0.9-0.4c0.8,2.6,2.9,3.7,4.5,4.3
	l-0.1,1.6c-1.5-0.5-3.3-1.3-4.7-2.6c-2.6-2.5-3.1-4.4-2.6-6c0.5-1.7,1.8-1.2,1.8-1.2c-0.5-0.6-1.5-0.2-1.5-0.2
	c-1.3,0.8-0.9,2.2-0.9,2.2s-0.2,0.1-0.7-0.2c-0.7-0.4-1.3-1.2-1.3-1.2s0.9-2.1,1.6-2.2s1.7-0.2,1.7-0.2l-0.3-0.2
	c0,0-1.9-0.3-2.7-0.7c-1.3-0.5-1.5-2.5-1.5-2.5c1-0.6,0.5-0.5,2-1c0.7-0.3,2.1,0.6,2.1,0.6L43.3,71.4L43.3,71.4z M61.3,67.7
	c0.8,0.3,0,2.7,0,2.7s1.3-0.9,1.9-2.3c0.6-1.3-0.4-3.1-1.9-2.9c-1.9,0.1-2.6,2.9-2.6,2.9C59.4,67.2,60.6,67.3,61.3,67.7L61.3,67.7z
	 M47,68.2c0,0-1.1-2.7-3-2.9c0,0-2.8,0.2-1.5,3.1c0,0,0.1,0.5,1.1,1.5c0,0,1.4,1.2,1.1,0.2c-0.4-1-1.4-2.3-0.5-2.8s1.4-0.2,1.9,0.2
	C46,67.6,46.7,68,47,68.2z M49.3,65.3c0,0-0.7,0.2-0.8,2c0,0,0.7-0.3,1.4-0.1C49.9,67.2,49.9,65.5,49.3,65.3L49.3,65.3z M53.9,67.2
	c-0.2-2.7-1.1-2.6-1.1-2.6c-1,0.4-0.9,2.6-0.9,2.6C52.9,66.9,53.9,67.2,53.9,67.2z M57.1,67.2c0,0,0.2-2.1-0.5-2.2
	c-0.7-0.1-0.7,2.1-0.7,2.1C56.8,66.9,57.1,67.2,57.1,67.2z M50,74.6c0,0-0.4-0.1-0.5-0.2c-0.1-0.1-0.3-0.5-0.7-0.4
	c-0.4,0.1-0.4,0.5-0.3,0.8c0.1,0.3,0.4,0.6,0.7,0.6s0.6-0.2,0.7-0.3C50,74.9,50.1,74.7,50,74.6z M56.8,74.9c0.1,0.2,0.3,0.2,0.6,0.2
	c0.3,0,0.7-0.2,0.8-0.5c0.1-0.3,0.2-0.6-0.2-0.7c-0.5-0.1-0.7,0.2-0.8,0.3c-0.1,0.1-0.4,0.2-0.4,0.2C56.6,74.5,56.7,74.8,56.8,74.9
	L56.8,74.9z M61.7,76.4c2-1.9,1.2-5.3,1.2-5.3s0.9-0.3,1.6,0c1.5,0.6,0.8,0.3,1.6,0.8c0,0-0.2,1.5-1.4,2.2c-0.7,0.4-0.8,0.4-1.3,0.6
	l-0.6,0.2c0,0,0.4,0.3,1.1,0.6c0.6,0.2,1.4,2,1.4,2s-0.7,0.8-1.3,1.2c-0.5,0.3-0.7,0.2-0.7,0.2s0.2-1.5-0.5-1.9c0,0-0.7-0.4-1.1-0.3
	L61.7,76.4L61.7,76.4z"/>
<path class="st1" d="M55.7,119.8c-0.7-0.3-0.7-0.5-0.8-0.6c-0.3-0.2-1-0.1-2.4-1.1c-1.4-1-1.6-0.1-2.2-0.3s-1.2-0.7-1.2-0.7
	s-0.1,0.8,0.4,1.4c0.1,0.2,0.3,0.4,0.3,0.4s0.1,0.1,0.1,0.2c0,0.4-1-0.2-1-0.2c-0.1,0.8,0.8,1.5,0.9,1.6c0.1,0.1,0.3,0.3,0.3,0.3
	s-0.1,0.3-0.2,0.3c-0.2,0.1-0.6,0.4-0.6,0.4s0.9,0,1.2,0.1c0.3,0.1,0.9,0.5,1.6,0.6c0.7,0.1,1.3-0.3,1.5-0.2
	c0.2,0.1,0.7,0.1,0.7,0.1s0.1,0,0.2-0.3c0-0.3,0.2-0.7,0.3-1.3c0.2-0.6,0.2-0.4,0.6-0.4C55.9,120.2,56.1,119.9,55.7,119.8
	L55.7,119.8z M52.9,124.5c0,0,1.3,0.7,2.1,1c0.4,0.2,1,0.6,1.2,0.6s0.8-0.4,1.2-0.6s1.9-0.8,1.9-0.8s-1.2-1.1-1.4-1.7
	c-0.2-0.5-0.3-1.6-0.3-1.6s0-1,0.1-1.1v0c0.2-0.1,0.3-0.1,0.3,0.3c0,0.6,0.3,1,0.3,1.3c0,0.3,0.1,0.8,0.1,0.8s0.4-0.2,0.6-0.4
	c0.3-0.1,0.9,0.1,1.6-0.1c0.7-0.1,1.4-0.6,1.7-0.7c0.3-0.1,0.8-0.1,0.8-0.1s0-0.3-0.2-0.4c-0.1-0.1,0-0.3,0-0.3s0-0.1,0.1-0.3
	c0.1-0.1,0.9-0.4,0.9-1.3c0,0-0.8,0.1-0.8-0.1c0-0.1,0-0.2,0-0.2s0.2-0.2,0.3-0.4c0.1-0.2,0.2-1.2,0.2-1.2s-0.3,0.3-0.9,0.4
	c-0.6,0.2-0.6-0.6-2.1,0.3c-1.5,0.8-2.5,1-2.7,1.2S57,120,57,120c-0.4,0.1,0,0.4,0.2,0.4c-0.2,0.3-0.1,1.6-0.1,1.6
	c0,1.1,0.8,2.3,0.8,2.3c-0.2,0-1.6,0.8-2,0.8c-0.2,0-1.8-0.8-2.2-0.8c0,0,0.5-0.7,0.7-1.1l-0.4,0L52.9,124.5L52.9,124.5z M54.2,121
	c-0.2,0.3-0.8,0.8-1.5,0.8s-1.6-0.7-1.8-1.4c-0.2-0.7-0.2-1.5,0.8-1.7c0.9-0.2,1.2,0.6,1.5,0.9c0.3,0.3,1.1,0.4,1.1,0.4
	C54.7,120.1,54.5,120.6,54.2,121z M58.4,120c0,0,0.7-0.2,0.9-0.5c0.3-0.3,0.8-0.9,2-0.7c1,0.2,0.7,1,0.5,1.6
	c-0.2,0.7-1.1,1.1-1.9,1.1c-0.8,0-1.2-0.2-1.4-0.5C58.4,120.6,58.1,120.1,58.4,120z M47.3,117.6c-0.1-0.1-2.3-2.4-2.4-4
	c0-0.6,0.3-3.2,3.4-2.7c0.9,0.1,1.4,0.7,2.2,1.4c0.7,0.8,0.5,0.7,0.5,0.7s0.4-2.2,1.6-2.4c1.1-0.2,1.4,2.6,1.4,2.6
	c0.1,1.1,0.2-3.3,1.9-3.3c1.4,0,1.7,4,1.7,3.6c0,0,0.2-3,1.6-3c1.6,0,1.1,3.2,1.1,3.2s0.3-0.5,0.8-1.5c0.6-1.1,2.4-1.7,3.3-1.3
	c1.5,0.6,2.4,1.7,2.1,3c-0.4,1.7-2.1,3-2.1,3s0,0.4,0.1,1.9c0.1,1.5-1.5,3.2-1.5,3.2s1.3-0.4,1.7,1c0.4,1.4,0,3.1-2.4,5.2
	c-1,1-2.4,1.7-3.6,2.1l-0.1-1.4c0,0,0,0,0,0c0,0,0,0,0,0c3.5-0.7,3.9-4,3.9-4s-0.4,0.3-0.7,0.6c-0.3,0.3-0.2-1-0.5-0.8
	c0,0-0.5,2.7-2.9,2.9c-2.4,0.2-2.2-1.5-2.2-1.5l-0.5,0c0,1.3-2.2,1.3-2.2,1.3c-1.3-0.3-2.5-1-2.8-2.4c0-0.1-0.5,0.7-0.5,0.7
	c-0.5-0.1-0.8-0.3-0.8-0.3c0.7,2.2,2.6,3.2,4,3.8l-0.1,1.4c-1.3-0.4-2.9-1.1-4.2-2.3c-2.3-2.2-2.8-3.8-2.4-5.2c0.4-1.4,1.7-1,1.7-1
	c-0.5-0.5-1.3-0.2-1.3-0.2c-1.2,0.7-0.8,1.9-0.8,1.9s-0.2,0.1-0.7-0.1c-0.6-0.3-1.2-1-1.2-1s0.8-1.8,1.5-1.9
	c0.7-0.1,1.6-0.2,1.6-0.2l-0.2-0.2c0,0-1.7-0.3-2.5-0.6c-1.2-0.4-1.4-2.1-1.4-2.1c0.9-0.6,0.4-0.4,1.8-0.9
	C46.1,116.8,47.3,117.5,47.3,117.6L47.3,117.6L47.3,117.6z M63.6,114.4c0.7,0.3,0,2.3,0,2.3s1.2-0.8,1.7-2c0.5-1.1-0.4-2.6-1.7-2.6
	c-1.7,0.1-2.3,2.5-2.3,2.5C61.8,113.9,62.9,114.1,63.6,114.4L63.6,114.4z M50.7,114.8c0,0-1-2.4-2.7-2.5c0,0-2.5,0.2-1.3,2.7
	c0,0,0.1,0.4,1,1.3c0,0,1.3,1.1,1,0.2s-1.2-1.9-0.5-2.4s1.2-0.2,1.7,0.2C49.8,114.3,50.4,114.7,50.7,114.8z M52.7,112.3
	c0,0-0.6,0.1-0.7,1.7c0,0,0.6-0.3,1.3-0.1C53.3,113.9,53.3,112.5,52.7,112.3L52.7,112.3z M56.9,114c-0.2-2.3-1-2.2-1-2.2
	c-0.9,0.3-0.8,2.2-0.8,2.2C56,113.7,56.9,114,56.9,114L56.9,114z M59.8,114c0,0,0.2-1.8-0.4-1.9c-0.6-0.1-0.7,1.8-0.7,1.8
	C59.5,113.7,59.8,114,59.8,114z M53.4,120.4c0,0-0.3-0.1-0.4-0.2c-0.1-0.1-0.3-0.4-0.6-0.3c-0.4,0.1-0.3,0.4-0.3,0.7
	c0.1,0.3,0.4,0.5,0.7,0.5c0.3,0,0.5-0.2,0.6-0.3C53.4,120.6,53.5,120.4,53.4,120.4L53.4,120.4z M59.5,120.6c0.1,0.1,0.3,0.2,0.6,0.2
	c0.3,0,0.7-0.2,0.7-0.4c0-0.3,0.2-0.6-0.2-0.6c-0.4-0.1-0.6,0.2-0.8,0.3c-0.1,0.1-0.4,0.2-0.4,0.2C59.3,120.3,59.4,120.5,59.5,120.6
	L59.5,120.6z M63.9,121.9c1.8-1.7,1.1-4.6,1.1-4.6s1.3-0.4,2-0.2c1,0.3,1.1,0.6,1.4,1.2c0,0-0.5,1.3-1.6,1.8c-0.6,0.3-1,0.3-1.4,0.4
	H65c0,0,0.5,0.1,1,0.4c1.4,0.8,1.1,1.9,1.1,1.9s-0.6,0.7-1.2,1c-0.4,0.2-0.7,0.1-0.7,0.1s0.2-1.3-0.4-1.7c0,0-0.6-0.4-1-0.3
	L63.9,121.9L63.9,121.9z"/>
<path class="st1" d="M54.8,129.8c0,0-0.4,1.4,0,2.5c0.2,0.7,0.6,1.1,0.9,1.3v-4.5C55.3,129.4,54.8,129.8,54.8,129.8L54.8,129.8z"/>
<path class="st1" d="M57.7,129.8c0,0-0.6-0.5-1-0.8v4.7c0.4-0.1,0.8-0.5,1.1-1.3C58.1,131.2,57.7,129.8,57.7,129.8L57.7,129.8z"/>
<path class="st1" d="M81.3,70C81.3,70,81.3,70,81.3,70L81.3,70L81.3,70L81.3,70z M52.6,89.9v-5.2c-0.5,0.4-1,0.8-1,0.8
	s-0.4,1.6,0,2.9C51.9,89.3,52.2,89.7,52.6,89.9L52.6,89.9z M54.9,88.5c0.4-1.3-0.1-2.9-0.1-2.9s-0.7-0.6-1.2-1V90
	C54.1,89.9,54.5,89.5,54.9,88.5L54.9,88.5z M53.6,95.7C53.6,95.7,53.6,95.8,53.6,95.7c0,0,0.5,1.2,1,2.4c0.4,1.1,0.8,1.8,1,2.2
	c0.1,0.1,0.6,0.8,0.1,0.6c-0.4-0.2-1.3-1.1-2.1-2.6c-0.3-0.6-0.5-1.1-0.6-1.4c-0.4,0.8-0.4,0.7-0.7,1.2c0.6,1.3,1.6,3,4,3.8
	c0,0,0.7-1.7,0.4-3.7C54.7,97.8,54.3,96.6,53.6,95.7z M133.7,108c-0.7-0.3-0.7-1-0.7-1s0.6-0.3,0.7-1.9c0.1-1.6-1.2-2.4-1.2-2.4
	c1,0.1,2.6-1.5,1.9-3.2c-0.9-2-2.7-1.2-3.4-0.8c-0.2,0.2-0.4,0.2-0.4,0.2s0.1-0.1,0.4-0.2c0.9-0.6,3.1-2.4,1.9-4.1
	c-1.6-2.2-4.4,0-4.4,0c1.1-0.8,3.4-2.9,1.5-4.4c-1.2-0.9-2.6-0.3-3.5,0.4c-0.4,0.3-0.7,0.6-0.9,0.8c0,0,0.3-0.4,0.9-0.8
	c0.9-0.8,1.9-1.8,1-2.5c-2.1-1.7-4.5,1.1-4.5,1.1s-3.5-2.5-6.8-2c-3.3,0.5-5.8,0.9-7.3,0.8c-1.2-0.1-4.4-1-5.1-2.2
	c-0.7-1.2-1.3-1.6-1.7-1.8c-0.2-0.1-0.3-0.1-0.3-0.1s0.1,0,0.3,0.1c0.5,0.2,1.6,0.7,2.5,1.4c0.4,0.3,3.5,0.2,4.4,0.2
	c1.3,0,1.3,0.1,3.1,0.1c8.6-0.2,12.1-0.4,15.2-3c3.2-2.8,0.6-6.9,0.2-7.4c-1.7-2.2-4.6-2.9-7.4-2.9S79.6,73,76.9,73s-6.6,0.1-8-1.4
	c-1.5-1.7,0.6-4.2,2-4.3c1.3-0.1,2.8,1.4,3.8,1.6c1.1,0.2,2.2,0.8,3.7,1.2c1.5,0.4,2.8-0.1,2.8-0.1l-2.2-2.5c0,0-0.6,0-1.1,0
	c-0.3,0-0.4-0.7,0-0.7c0.4,0,1.3,0,1.5,0c0.2,0.1,1.4,2,2.5,2.6s2.5,0.5,3.5,0.5h2.5l-2.2-2.5c0,0-0.6,0-1.1,0c-0.3,0-0.5-0.6,0-0.6
	c0.4,0,1.4,0,1.6,0c0.2,0.1,1.4,2,2.5,2.6c1.2,0.7,2.8,0.5,3.8,0.5s1.4-0.6,1.4-0.6l-2.4-2h-1.3c0,0-0.4-0.6,0.1-0.6H92
	c2.4,2.2,2.7,2.2,3.3,2.7c1,0.7,2.3,0.5,3.1,0.5c0.9,0,1.4-0.7,1.4-0.7l-1.7-1.9l-1.3,0c0,0-0.5-0.6,0-0.6s1.6,0,1.6,0
	s1.5,1.7,2.6,2.5c1.1,0.8,2.3,0.7,3.7,0.6c1.4-0.2,1.8-0.7,1.8-0.7l-1-1c0,0-0.7-0.8-0.7-0.8c-0.4-0.1-1.4,0-1.6,0s-0.3-0.6,0-0.6
	s1.9,0,1.9,0s1,1.1,2.3,1.9c1.3,0.8,2.9,0.5,4.7,0c1.7-0.5-0.6-1.4-0.6-1.4s-0.5-0.3-0.9-0.5c-0.4-0.2-0.9-0.6-0.6-1.1
	c0.2-0.3,1.8,0.6,1.8,0.6s0.3,0.1,0.8,0.3c0.5,0.2,3,1.5,9.8-3.2l-47.7,0.2c-3.6,0-7.3,0.9-9.1,4.2c-0.5,0.9-0.6,1.9-0.6,2.9
	c0.9,0.4,0.6,0.3,1.5,0.9c0,0-0.1,1-0.7,1.8c0.4,0.7,0.8,1.2,1.4,1.6c2,1.4,7.2,0.9,15.3,0.9h36.6c1.8,0,4.1,0.3,5.2,1.5
	c1.6,1.7-0.7,3.7-2.3,3.7c-1.7,0-9.8,0.1-13.9,0.1s-21.3-0.4-26.4-0.2c-3.5,0.1-8.5,0.1-10.7-0.2c-0.5-0.2-0.6-0.7-0.8-1
	c-0.8,0.2-1.5,0.3-1.5,0.3s-0.8,0.2-1.3,0.5c-0.5,0.3-1.3,0.6-1.3,0.6c0-1.1-0.1-1.4-0.1-1.4c-1.5,0-2.7,0.3-2.7,0.3
	s0.2-0.1-1.3,2.4c-1.5,2.6-6.1,4.3-6.1,4.3c0,4.3-2.8,4.3-2.8,4.3c-3.3-0.4-3.1-4-3.1-4c-5.8-2.1-7.1-5.4-7.1-5.4l-1.5-0.4
	c-0.5-0.4-1-0.9-1.6-1.5c-1.8-1.6-3.5-2.7-4.3-4.1c-0.8-1.4-2.5-4-2.2-5.3c0.3-1.4,0.7-3.5,0.8-3.9c0.1-0.4,0.2-0.9,0.1-1.5
	c-0.1-1-2.4-1.4-2.4-1.4c1.9,1.2,1,2.5,1,2.5c-0.3,0.4-0.6,1.7-2.8,1.7c-1,0-0.9,1.9-0.9,1.9l0.5,2.1l1,2.8c0,0-1.2-2-1.8-3.5
	c-0.5-1.1-2.1-5-2.8-6.6c-0.7-1.6-3.1-1.4-3.1-1.4c2.7,0.9,1.7,3.2,1.7,3.2s-0.1,0.9-0.8,2.4c-0.8,1.8,1,2.8,1,2.8l3,2.6l1.3,0.8
	c0,0-1.9-0.4-2.5-0.9c-0.7-0.5-1.8-1.2-3.3-1.9c-1.7-0.8-5.2,0.7-5.2,0.7c1.2,0.2,2.3-0.4,2.9,1.1c0,0,0.5,1.9,1.4,2.8
	c1.7,1.6,2.6,1.4,3.7,1.3c1.1-0.1,1.4,0.2,2.3,0.7s1.5,1.2,1.2,1.9s-0.4,1.5-0.6,2.8s0.1,4.9,2.2,5.2c2.1,0.3,4.7-1.9,4.7-1.9
	l-1.1,1.5c-1.1,1.5-0.9,4.3,2,5.1c1.9,0.5,3.8-0.3,4.8-0.9c0.3,1.4,0.9,2.4,1.6,2.7c-0.1,0.1-0.1,0.2-0.1,0.2s-0.9,0.2-5,0
	s-4.9-2.2-6-2.8c-1.1-0.6-1.2-1.1-1.6-2.6c-0.5-1.9-2-3.6-3-4.6C25.8,83.8,23,85,23,85s2.1,0.2,2.4,1c0.4,0.9,0.5,0.4-0.1,2s1,4,1,4
	l-1.2-1.2c-0.3-0.4-0.6-0.4-1.6-1.3c-0.9-0.8-1.8-0.9-1.8-0.9c-1.1,0-1.3,0.5-2.1,0.6c-0.9,0-2,0.8-2,0.8s3.2-0.5,3.1,1.7
	c0,1,0.3,1.2,1,1.7c0.4,0.4,1.7,1.1,2.9,1.2l1.4,0.2l-2.3,0c-1.4,0.1-2.5,1.7-2.5,1.7c-1.9,0.5-2.2,3.1-2.2,3.1s0.3-0.9,1.1-1.3
	c0.8-0.4,2.1,0.1,3.5,0.8c1.4,0.7,5.8-1.4,4.5-0.6c-1.3,0.8-2.3,4.1,0.9,5.2c3.2,1.1,5.2-3.4,5.2-3.4l-0.4,1.1c0,0-1.1,3.1,1.9,3.9
	c3,0.8,5.3-2.8,5.3-2.8s-0.2,0.3-0.2,1.3s0.5,2.8,2.9,3.3s3.6-2.4,3.6-2.4s0.1,0.7,0.3,1.3s1.3,1.5,3,1c2.8-0.8,2.5-3.2,2.5-3.2
	s0.6,0.1,1.9-0.5c0,0,0,0,0,0c1,0.4,1.8,0.5,1.8,0.5c0.9-0.4,1.5-3.7,1.5-3.7c2,0.3,1.2-1.4,1.2-1.4c0.5,0.7,1.7,1.2,1.7,1.2
	c1.7,1,4.2,0.7,4.2,0.7c0.2-0.8,0.3-1.8,0.3-2.8c1.4-0.3,3.4-0.9,5.5-1.9c3.9-1.8,5-3.1,6.6-3.5c4-1,4.4-0.5,5.5-0.5
	c2.6,0.1,3.2,0.4,3.2,0.4c0.2,3.6,3.8,5.6,3.8,5.6c1.1,0.9,3.1,1.2,2.9,1.3c-0.9,0.6-1.4,0.2-3.7,0.4c-2.3,0.2-5.8,0.6-5.8,0.6
	s0-0.5-0.6-1.3s-1.7-1.3-2.3-2c-0.6-0.7-0.5-0.6-1.2-2c-1-2-2.9-1.3-2.9-1.3c1.4,1,1.2,0.9,1.6,1.7c0.1,0.2-0.5,0.5-0.5,1.9
	c0,1,0.9,1.8,1.6,2.3c0.3,0.2,0.6,0.4,0.6,0.4s-0.2-0.1-0.6-0.4c-0.4-0.3-1.1-0.6-1.8-0.9c-1.3-0.4-1.7-0.4-2.8-0.2
	c-1,0.1-1.6,0.5-1.6,0.5c-1.9,0.3-2.4,2.4-2.4,2.4c1.3-1.4,2.5-0.9,2.5-0.9s1.3,0.2,2,1.2c0.6,0.9,2,0.9,3.2,0.8
	c1.2-0.3,2.3-0.5,2.3-0.5s-1.1,0.4-2.3,0.5c-0.9,0.2-1.8,0.4-2.2,0.6c-1,0.4-1.2,1.9-1.2,1.9c-1.1,0.5-1.2,2.2-1.2,2.2
	c0.7-0.8,1.5-1.9,2.7-1c0.5,0.4,1.4,0.7,3.4,0.3c2-0.3,3-1.9,3-1.9s-0.3,1.3,0.6,2.5c0.9,1.2,2.2,1.4,2.2,1.4s1-0.1,1.9-1.2
	c0.9-1.2,0.3-3.1,0.3-3.1h0.3v0.6c0,0.6-0.2,4.6,3.1,4.4c2.6-0.2,2.8-3.4,2.8-4.8c0-0.4,0-0.7,0-0.7s0,0.3,0,0.7
	c0,0.8,0.2,2.2,0.6,3c0.7,1.4,3.1,1.7,3.1,1.7s0.7-0.1,1.7-1.7c0.5-0.8,0.7-2.4,0.9-3.6l0,0c0,0.8,0.3,1.6,0.9,2.1
	c1.8,1.4,3.7,0.2,3.7,0.2s1.5-1.6,1.1-3.2c-0.4-1.6-1.8-2.7-2.4-3.3c-0.9-0.8-2.3-1.4-2.9-1.9c0,0-2.5-0.2-6.2-2
	c-4.6-2.2-5.8-4.7-5.8-4.7s-0.3-0.8-0.4-1c0-0.1-2.2-2.2-2.1-2l-0.2-0.3l3.8,1.1c0.7,1.6,3,4,6.4,5.5c3.9,1.7,7.3,1.9,10.2,1.8
	c2.9-0.1,8.3-1.5,10.9-1.5s4.4,1.4,5.2,2.8c0.8,1.4,1.8,3.1,1.5,4.4c-0.3,1.3-1.1,1.7-2.5,2.7c-1.4,0.9-1,2.2-1,2.2s0.3,0.5-0.1,1.2
	c-0.4,0.6-0.2,1.9-0.2,1.9s0.3-1.8,1.2-1.5c0.4,0.1,0.9-0.2,0.9-0.2s0.2,0.1,0.9,0.3c0.8,0.3,1.6-0.8,1.6-0.8s-0.3-0.3-0.3-1.3
	c0-1,0.6-1.8,0.6-1.8s0.1,0.8,0,1.8s0.8,1.7,0.8,1.7c0,0.7-0.4,1.8,0.4,2.9s1.6,0.9,1.6,0.9s-0.8-0.1-1-1.2c-0.2-1,0.7-1.4,0.7-1.4
	s0.8,0.1,1.5-1.1s-0.4-4.7-0.4-4.7l0.4,0.8c0,0,0.6,0.6,0.6,2c0,0.8,1.1,0.9,1.1,0.9s0.2,0.7,1.4,1.2s2.4-0.6,2.4-0.6
	S134.4,108.3,133.7,108L133.7,108z M33.5,87.4c0,0,1.1-2.7-0.4-3.3S30.3,86,30.3,86s0.7-5.3,3.9-3.7C37.1,83.9,33.5,87.4,33.5,87.4
	L33.5,87.4z M37.5,91.7c3.1-1.8,2.7-4.9,2.7-4.9C42.5,90.5,37.5,91.7,37.5,91.7z M29.4,102.4c-1.5-0.7-0.6-2.4,0.1-3.2l2.9,1.1
	C32.4,100.3,31,103.1,29.4,102.4L29.4,102.4z M36,104c-0.6-0.4-0.7-1.8-0.3-2.8L39,102C39,102,37.6,105.1,36,104L36,104z M63.8,83.4
	c0,0-3,1.8-5.2,4.2l-1-0.6C57.6,87.1,60.2,84.6,63.8,83.4L63.8,83.4z M54.5,91.5c0.2-0.1,0.9-0.5,0.9-0.5s0.1,0.4,0.5,2.5
	c0.3,1.2,0.8,2.1,0.9,2.3c0.1,0.2,0.6,1.2,0.1,0.8c-0.4-0.3-1.5-1.4-2.2-3.2C54.2,91.8,54.3,91.7,54.5,91.5L54.5,91.5z M51,91.3
	c0,0,1,0.5,1.1,0.6c0,0,0.2,0.9-0.2,2.2c-0.3,1.2-1.4,2-1.6,2.1c-0.3,0.2,0.3-0.9,0.4-1c0.1-0.2,0.4-0.8,0.4-1.7
	C51.2,92.1,51,91.3,51,91.3L51,91.3z M50,92.6c-0.3,0.6-0.5,1.8-0.5,2c0,0.1,0,0.4-0.1,0.1c-0.1-0.2-0.5-1.8-0.2-2.8
	c0.3-0.9,0.4-1.2,0.5-1.2c0.1,0,1,0.1,1,0.1S50.4,91.5,50,92.6L50,92.6z M47.1,89.9c-0.7,1.1-1.7,1.5-2.1,1.5
	c-0.6,0,0.2-0.5,0.3-0.6c0.1-0.1,0.7-0.6,1.1-1.4c0.6-1.3,1-2.2,1-2.2s0.2,0.4,0.3,0.5C47.8,87.9,47.7,88.9,47.1,89.9L47.1,89.9z
	 M46.7,86.4c0.1,0,0.6,0.4,0.6,0.4s-0.4,0.6-1.2,1.4c-0.5,0.5-0.9,1.2-1,1.3c0,0.1-0.2-0.1-0.2-0.4c0-0.2,0.2-1,0.8-1.8
	C46.3,86.6,46.6,86.4,46.7,86.4L46.7,86.4z M44,106c-2.2-0.8-1.1-1.9-0.9-3.2l3.1,0.9C46.2,103.7,46,106.7,44,106L44,106z
	 M50.6,105.9c-0.8,0.2-2-0.7-1.9-1.8l2.8-0.4C51.5,103.8,51.5,105.7,50.6,105.9z M67.6,88.1c-1.7,1.2-3.5,1.6-5,1.2
	c1.2,1.1,1.9,4.1,1.9,4.1c-2.8,1.3-4.9,0.3-6.2-0.4l0,0.1c0.8,1.4,0.9,2.2,0.8,3.3c0.5,0.5,2.2,2.4,4.7,2.5c0,0,0.1-1.6-1.4-5
	c0.3,0,1.2-0.2,1.2-0.2c1.9,3.5,1,6.3,1,6.3c-2.3,0.2-4.3-1-5.7-2.2c-0.1,0.4-0.2,0.6-0.2,0.6c-0.5,0.1-0.9,0-1.2,0
	c0.1,3.2-1,4.6-1,4.6c-3.6-0.6-4.9-2.9-5.3-4c-0.8,0.8-1.5,0.9-1.5,0.9s-3.3-2.1-3-6c0-0.2,0.1-0.5,0.2-0.7c-1.3,2.1-3,2.6-3,2.6
	c-1.2-1.1-1.7-2.1-2-3h0c-0.2-0.7-0.2-1.3-0.1-1.8c0-0.1,0-0.2,0-0.2c0.1-0.7,0.3-1.2,0.5-1.8c0.4-1.4,2.4-3.5,2.4-3.5l1,0.8
	c0,0-1.9,2.2-2.2,3.4c-0.3,1.2-1,3.2,0.6,4.8c0,0,2.8-1.6,3.3-3.9c0.5-2,0.8-3.4,0.8-3.4l0.9,0.2c0,0,0.1,0.6-0.1,1.7
	c0.2-0.4,0.4-0.6,0.4-0.6l0.8,1c0,0-1.7,2.2-2,4.5c-0.2,1.3,0,2.9,2,4.5c0,0,2-1.3,2.4-4c0.3-1.6,0.2-2.4,0.2-2.4l1-0.3
	c0.6,2,0.2,2.9,0.2,2.9c0,0,0,0,0,0c0.3,0.6,1.8,2.6,4.2,2.9c0,0,0.4-1.6-1-4.9c-1.1-0.9-1.6-2-1.6-2l0.6-0.9c0,0,1.1,1.6,2.5,2.3
	c0,0,1.6,1.3,4.4,0.7c0,0-0.2-1.8-1.6-2.9c-0.9-0.6-1.4-1.1-1.4-1.1c-0.9,0.4-2.5,0.1-2.5,0.1l-0.2-0.9c1.4,0.4,3.5-0.9,3.5-0.9
	c1.5-0.7,2.2-1.5,2.2-1.5c1.7-2.3,1.7-4.1,1.7-4.1c-0.7-0.2-1.3,0.3-1.3,0.3l0.5-0.9c1.4-0.3,1.8-0.2,1.8-0.2c0,0.6,0,1.2-0.1,1.7
	c2.4-1.2,4.5-1.8,4.5-1.8C70.8,85.2,68.9,87.2,67.6,88.1L67.6,88.1z M62.4,97.4c-0.2-0.1-1.5-0.8-2.2-1.6c-0.6-0.7-1-1-0.7-1.1
	c0.1,0,0.5-0.8,0.5-0.8s0.3,0.6,0.9,1.5c0.4,0.6,1.3,1.7,1.4,1.8C62.4,97.3,62.7,97.5,62.4,97.4L62.4,97.4z M56.6,88.1
	c0,0,1.1,1,2.8,2.3c1,0.8,2.3,1.3,2.5,1.3c0.2,0.1,0.8,0.2,0.2,0.3c-0.5,0-2.1,0.2-3.6-0.8C56.9,90.2,56.5,88.3,56.6,88.1L56.6,88.1
	z M86,107.6c-1.2,0-1.2-1.9-1.1-3.1l2.4,0.1C87.4,104.7,88.2,107.6,86,107.6z M91.6,107.9c-1.1,0.2-1.4-1.4-1.6-2.6l2.6-0.1
	C92.6,105.2,93.2,107.6,91.6,107.9L91.6,107.9z M104.2,101.9c0,0,1.8,3.2,0.3,3.6c-0.5,0.2-2.1-0.3-2.9-1.3L104.2,101.9z
	 M98.2,104.6c0,0,1.2,2.4-0.1,2.9c-1.4,0.5-1.7-1.2-2-2.5L98.2,104.6z M132.2,95c0,0.4-0.6,1.6-1.4,2.2l-1.1-1.8
	C129.7,95.4,132.1,93.9,132.2,95L132.2,95z M129,90.9c0.8,0.8-0.4,1.7-1.2,2.4l-1.4-1.5C126.4,91.8,128.2,90,129,90.9L129,90.9z
	 M123.7,89.6c0,0,2-1.9,2.7-1c0.5,0.7-0.1,1.8-0.9,2.4L123.7,89.6z M130.4,100.3c-0.2-0.1-2,1.5-2,1.5c-0.3-3.8-3.4-9.6-3.4-9.6
	C128.3,94.9,130.7,100.4,130.4,100.3z M131.8,100c0,0,1.5-1.3,1.9-0.2c0.2,0.6,0,1.4-1.4,1.7L131.8,100L131.8,100z M65.6,82.4
	c-0.4,2.3-0.7,3.2-3.1,4.9c-0.5,0.4-1.1,0.5-1.6,0.7c0,0,0.5,0.1,0.5,0.1c3.8,1,5.7-1,5.7-1c2.1-1.8,2-5.1,2-5.1
	c-1.6,0.4-2.3,0.9-3.5,1.5L65.6,82.4L65.6,82.4z M67.9,83.5c0.1-0.2,0.4-0.7,0.3-0.1c-0.1,0.4-0.8,1.8-2,3c-1.2,1.2-3.1,1.4-3.3,1.3
	c-0.2-0.1,0.3-0.9,0.3-0.9s1.2-0.3,2.7-1.5C66.8,84.6,67.7,83.7,67.9,83.5L67.9,83.5z"/>
<path class="st1" d="M51,50.1c0,0-0.1,0.2-0.1,0.2c0.2,0.5,0.4,1.2,0.9,2.5c0.4,1.1,1,1.9,1.2,2c0.3,0.3,0.7,0.7,0.2,0.5
	c-0.4-0.2-1.4-0.5-2.2-2.1c-0.3-0.5-0.7-1.1-0.9-1.6c-0.2,0.3-0.4,0.7-0.8,1.2c0.7,1.4,2.3,3.2,4.6,3.9c0,0,0.5-1.6,0.3-3.7
	C52.7,52.5,51.5,51.1,51,50.1L51,50.1z M60.5,41.2c-0.4,0.3-0.6,0.4-1,0.6c4.2,1.5,6.2-0.7,6.2-0.7c2.2-1.8,1.9-5.3,1.9-5.3
	c-1.8,0.2-2.8,0.7-4.1,1.3C62.9,38.9,62.5,39.8,60.5,41.2z M65.5,37.3c0.1-0.2,0.6-0.9,0.5-0.3c-0.1,0.4-0.5,2-1.8,3.3
	c-1.2,1.2-2.8,1.4-3,1.3c-0.2-0.1-0.1-0.7-0.1-0.7s1.1-0.4,2.7-1.7C64.9,38.6,65.4,37.6,65.5,37.3z M136.5,58.3
	c-0.7-0.3-0.7-1-0.7-1s0.6-0.3,0.7-2c0.1-1.7-1.3-2.5-1.3-2.5c1.1,0.1,2.8-1.6,2-3.2c-0.9-2-2.8-1.2-3.6-0.8
	c0.9-0.7,3.2-2.5,1.9-4.2c-1.6-2.3-4.6,0-4.6,0c1.1-0.8,3.6-3,1.6-4.5c-1.2-1-2.7-0.3-3.7,0.4c0.9-0.8,2-1.8,1-2.6
	c-2.2-1.7-4.7,1.2-4.7,1.2s-4.1-0.2-7.6,0.3c-3.4,0.5-5.1-0.2-6.7-0.3c-1.3-0.1-2.9,0.1-3.6-1.1c-1.1-1.8-4-2.3-4-2.3
	s3.8-0.2,4.6,1.1c0.6,0.9,2.7,0.3,3.6,0.3c1.3,0,4.3,0,6.2,0c2,0,8.9,0.9,11.5-1.6c3-2.8,2.9-6.5,0.6-8.8c-2.3-2.3-5.1-2-8.2-2
	s-40.6,0.7-43.4,0.7s-9,0.4-9.2-1.6c-0.1-1.5,0.6-1.8,2-1.8c1.4,0,2,0.1,3.1,0.4c1.1,0.3,2.3,0.8,3.9,1.3c1.6,0.5,2.9-0.1,3-0.1
	l-2.3-2.6c0,0-0.6,0-1.1,0c-0.3,0-0.5-0.7,0-0.7c0.4,0,1.4,0,1.6,0c0.2,0,1.5,2,2.7,2.7s2.6,0.5,3.6,0.5h2.6l-2.3-2.6
	c0,0-0.6,0-1.1,0c-0.3,0-0.5-0.6,0-0.6c0.4,0,1.5,0,1.6,0c0.2,0,1.5,2,2.7,2.7c1.3,0.7,2.9,0.5,3.9,0.5s1.5-0.6,1.5-0.6l-2.5-2h-1.3
	c0,0-0.4-0.6,0.1-0.6h1.6c2.6,2.2,2.8,2.3,3.4,2.7c1.1,0.7,2.4,0.5,3.3,0.5c1,0,1.5-0.7,1.5-0.7l-1.8-1.9l-1.4,0c0,0-0.6-0.6,0-0.6
	s1.7,0,1.7,0s1.6,1.7,2.7,2.6c1.2,0.8,2.4,0.7,3.9,0.6c1.5-0.2,1.9-0.7,1.9-0.7l-1.1-1c0,0-0.7-0.8-0.8-0.8c-0.4-0.1-1.5,0-1.7,0
	s-0.4-0.6,0-0.6s2,0,2,0s1.1,1.1,2.4,1.9c1.4,0.8,4.9,0.8,6.8,0.2c1.8-0.5-0.5-1.4-0.5-1.4s-0.5-0.2-0.9-0.4
	c-0.4-0.2-0.3-0.1-0.7-0.4c-0.3-0.3,0.2-0.8,0.2-0.8s0.3,0.2,0.8,0.4c0.5,0.3,2.3,1.1,5.3,1.2s4.4-1.5,4.4-1.5l-3-1.5
	c0,0,4.6,1.1,5.8,1.5c1.3,0.4,2.1-0.1,2.1-0.1c1.7-0.4,2.7-2.5,2.7-2.5H74.3c-3.8,0-7.7,0.9-9.5,4.3c-1.4,2.5-0.1,5.7,2,7.2
	c2.1,1.5,7.4,1.3,15.9,1.3h38.4c1.9,0,5.5-0.1,5.5,1.5c0,1.6-2.3,1.8-4,1.8h-12.9c-4.4,0-22.9,0.6-27.9,1.2
	c-5,0.6-12.5,1.5-12.5,1.5s0,0,0,0c0.1-0.6,0-1.3-0.4-1.9c0,0-0.8-0.1-3.2,0.7c-0.6,0.2-1.3,0.6-1.4,0.7c0-0.5,0-0.6,0.1-1.2
	c0,0-3.5-0.9-5.1,1.8c-1.2,2-2.9,2.4-5,5.1c-0.2,0.1-0.5,0.2-0.7,0.3h0c0,0.6-0.2,1-0.3,1.3c-0.8,2.1-1.9,2.5-2.8,2.5
	c-0.5,0-2-0.1-2.8-2.5c-0.1-0.3-0.2-0.7-0.2-1.1h0c-5.2-1.4-6.3-3-6.3-3c-0.7-0.4-1.2-0.7-1.2-0.7s-2.2-0.8-4.1-2.5
	c-1.9-1.7-4.1-5.1-4.9-6.5c-0.8-1.5-0.4-3.9,0-5.3c0.4-1.4,0.7-3.6,0.8-4c0.1-0.4,0.2-0.9,0.1-1.6c-0.1-1-2.5-1.4-2.5-1.4
	c2,1.2,1.1,2.5,1.1,2.5c-0.3,0.4-0.7,1.7-2.9,1.8c-1.1,0-1,2-1,2l0.6,2.2l1,2.9c0,0-1.3-2.1-1.9-3.6c-0.5-1.2-2.2-5.1-2.9-6.8
	C22.4,15.7,20,16,20,16c2.9,1,1.8,3.3,1.8,3.3s-0.1,0.9-0.8,2.5c-0.8,1.8,1,2.9,1,2.9l3.1,2.7l1.3,0.9c0,0-1.9-0.4-2.7-0.9
	c-0.7-0.5-1.9-1.3-3.5-2c-1.8-0.8-5.5,0.7-5.5,0.7c1.2,0.2,2.4-0.4,3,1.1c0,0,0.5,2,1.5,2.9c1.8,1.6,2.7,1.5,3.9,1.4
	c1.1-0.1,1.5,0.2,2.5,0.7c0.9,0.5,1.6,1.2,1.3,1.9c-0.3,0.7-0.4,1.6-0.6,2.9s0.1,5,2.3,5.3c2.2,0.3,4.9-2,4.9-2l-1.2,1.6
	c-1.1,1.6-0.9,4.4,2.1,5.2c1.8,0.5,3-1,4.2-1.6c-1,1.6,0.5,4.4,1.8,4.8c-1.1,0.2-2.5,0.2-4.1,0.1c-4.3-0.2-6.8-1.6-8-2.2
	c-1.1-0.6-1.5-1.6-1.4-3.6c0.1-2-1.1-3.9-2.1-5c-1.9-2-4.9-0.8-4.9-0.8s1.6,0.1,1.9,1c0.4,1,1.1,0.4,0.5,2.1
	c-0.6,1.7,1.1,4.1,1.1,4.1L22,44.7c-0.3-0.4-0.7-0.4-1.7-1.4c-1-0.8-1.9-0.9-1.9-0.9c-1.1,0-1.3,0.5-2.2,0.6c-1,0-2.1,0.8-2.1,0.8
	s3.3-0.5,3.3,1.7c0,1,0.4,1.3,1,1.8c0.5,0.4,1.8,1.1,3.1,1.2l1.5,0.2l-2.4,0c-1.5,0.1-2.6,1.7-2.6,1.7c-2,0.5-2.4,3.2-2.4,3.2
	s0.3-0.9,1.2-1.3c0.8-0.4,2.2,0,3.7,0.8c1.5,0.7,6.1-1.4,4.8-0.6c-1.4,0.8-2.4,4.2,0.9,5.3s5.4-3.5,5.4-3.5l-0.4,1.2
	c0,0-1.1,3.1,2,4s5.5-2.9,5.5-2.9s-0.2,0.3-0.2,1.4s0.5,2.8,3,3.3s3.8-2.5,3.8-2.5s0.1,0.7,0.3,1.4c0.2,0.6,1.4,1.5,3.1,1
	c3-0.8,2.6-3.2,2.6-3.2s0.2,0,0.7-0.1c0.6,0.3,1.4,0.6,2.3,0.8c0,0,1.2-2.3,1.4-4.1c1,0.2,1,0.2,1.4-0.1c0.3-0.2,0.4-0.3,0.6-0.5
	c1.5,1.1,3.5,1.8,5.6,1.7c0,0,0.5-2,0.2-4.1c1.3-0.2,3.7-0.2,6.8-1.6c4.1-1.9,5.4-3.2,6.8-4.3s3-2.3,4-2.8c1.3-0.5,3.6-1.3,3.6-1.3
	s3.9-1,3.1,1.8c-0.4,1.3-2.1,2.9,1,5.6c3.1,2.7,9.2,2.2,9.9,2.4s1.2,0.7,0.3,1.4s-3.4,0.6-5.9,0.8s-6.9,0-6.9,0s0-0.5-0.6-1.4
	s-1.8-1.3-2.4-2c-0.7-0.7-0.6-0.6-1.2-2c-1-2.1-3-1.3-3-1.3c1.5,1,1-0.2,1.7,1.8c0.1,0.2-0.5,0.5-0.6,2c0,1,1,1.9,1.6,2.3
	c-0.5-0.3-1.2-0.7-1.9-0.9c-1.4-0.4-1.8-0.4-2.9-0.2c-1,0.1-1.6,0.5-1.6,0.5c-2,0.3-2.6,2.4-2.6,2.4c1.3-0.6,2.7-0.9,2.7-0.9
	s0.9,0.8,2.1,1.2c0.9,0.4,5.8,0.3,5.8,0.3s-3.6,0.8-4.7,1.2s-1.1,1.8-1.1,1.8c-1.6,0.4-1.4,2.5-1.4,2.5c0.7-0.8,2.2-0.8,2.8-1
	c0.6-0.2,1.4,0.4,3.4,0.1c2.1-0.3,4.2-2.1,4.2-2.1s-0.3,1.4,0.6,2.6c0.9,1.3,2.4,1.5,2.4,1.5s1.1,0,2-1.3c1-1.2,0.3-3.1,0.3-3.1h0.3
	v0.6c0,0.6,0,3.7,3.4,3.5s2.7-4.5,2.7-4.5s0.4,1.2,1,2.4c0.8,1.5,3.3,1.7,3.3,1.7s0.7-0.1,1.8-1.7c1.1-1.6,0.1-4,0.1-4
	s0.4,0.8,1.9,2.1c1.5,1.3,3.8,0.2,3.8,0.2s1.7-1.6,0.7-3c-0.9-1.3-3.1-4-3.8-4.6c-0.9-0.7-2-1.6-2-1.6s-4.6-0.4-8.8-1.8
	c-5.5-1.9-6.4-8.3-6.4-8.3s2.8,3.6,5.7,5.4c3.8,2.4,8.6,2.7,11.6,2.6c3-0.1,10.5-1.9,13.2-1.9s3.8,1.6,4.6,3
	c0.8,1.5,1.9,3.1,1.6,4.5c-0.3,1.4-1.2,1.8-2.6,2.7c-1.5,0.9-1.1,2.2-1.1,2.2s0.3,0.5-0.1,1.2c-0.4,0.6-0.2,2-0.2,2s0.3-1.8,1.3-1.6
	c0.4,0.1,0.9-0.2,0.9-0.2s0.3,0.1,1,0.3c0.9,0.3,1.7-0.8,1.7-0.8s-0.3-0.3-0.3-1.3c0-1,0.6-1.9,0.6-1.9s0.1,0.8,0,1.9
	s0.8,1.8,0.8,1.8c0,0.7-0.4,1.8,0.4,3c0.8,1.2,1.7,0.9,1.7,0.9s-0.8-0.1-1-1.2c-0.2-1,0.7-1.4,0.7-1.4s0.8,0.1,1.6-1.1
	s-0.4-4.8-0.4-4.8l0.4,0.8c0,0,0.7,0.7,0.7,2.1c0,0.8,1.2,1,1.2,1s0.2,0.7,1.4,1.2s2.5-0.6,2.5-0.6s-0.7,0.2-1.4-0.1L136.5,58.3z
	 M29.8,39.7c1.2-1.6,0.8-3.5,0.8-3.5c-1.5-1.9-2.3,2.5-2.3,2.5s-0.4-4,1.3-4.5c0.9-0.3,1.2,0.2,1.8,0.9C33,37,29.8,39.7,29.8,39.7z
	 M33.8,57.7c-0.7-0.4-0.8-1.9-0.3-2.8l3.5,0.8C37,55.6,35.5,58.8,33.8,57.7z M61.7,36.8c0,0-2.6,2.2-6,4.9L55,40.8
	C55,40.8,57.3,37.9,61.7,36.8L61.7,36.8z M54.1,42.2c0,0,1.2,1,2.9,2.4c1,0.8,2.2,1.1,2.5,1.2c0.2,0,0.8,0.2,0.2,0.3
	c-0.5,0-1.9,0.1-3.6-0.9C54.5,44.1,54,42.4,54.1,42.2C54.2,42,54.1,42.2,54.1,42.2z M51.9,45.1c0.2-0.1,0.6-0.7,0.6-0.7
	s0.5,1.5,1,3.6c0.3,1.3,1,2.3,1.1,2.6c0.1,0.2,0.6,0.9-0.2,0.4c-0.4-0.2-1.4-1.5-2-3.3C51.7,45.8,51.7,45.3,51.9,45.1L51.9,45.1z
	 M48.3,45.6c0,0,1,0.5,1,0.7c0,0.1,0,0.6-0.2,1.9c-0.2,1.3-1.1,1.8-1.3,2.1c-0.3,0.3,0-0.3,0-0.4c0.1-0.2,0.3-0.8,0.3-1.7
	C48.2,46.6,48.2,45.6,48.3,45.6L48.3,45.6z M48.1,44.8c0,0-0.3,0.9-0.8,2c-0.3,0.7-0.4,1.6-0.4,1.8c0,0.1-0.2,0.2-0.3-0.1
	c-0.1-0.2-0.2-1.1,0.1-2.1c0.3-1,0.4-1.2,0.5-1.3C47.4,45,48.1,44.8,48.1,44.8L48.1,44.8z M45,42.1c0,0,0,0.5-0.7,1.6
	c-0.7,1.1-1.8,1.5-2.1,1.6c-0.4,0.2-0.2-0.1-0.2-0.2c0.1-0.1,0.8-0.7,1.2-1.5c0.6-1.3,1.1-2.3,1.1-2.3S44.9,42,45,42.1z M43.3,40.4
	c0.1,0,0.7,0.5,0.7,0.5s-0.3,0.4-1.1,1.3c-0.5,0.5-0.9,1.3-1,1.4c0,0.1-0.2,0.2-0.2-0.2c0-0.3-0.1-1.2,0.5-2
	C43,40.6,43.2,40.4,43.3,40.4L43.3,40.4z M33.8,44.9c3.3-1.8,2.8-5.1,2.8-5.1C39.1,43.6,33.8,44.9,33.8,44.9z M38.4,42.1
	c0.1-2.2,1.1-4.6,1-3.9l1.3,0.7c-2.3,1.4-1.9,6.6-1.9,6.6C38.3,43.9,38.4,42.1,38.4,42.1z M41.5,59.9c-2.3-0.9-1.1-2-1-3.3l3.3,1
	C43.8,57.6,43.5,60.7,41.5,59.9z M48.7,60c-0.8,0.2-2.1-0.7-2-1.8l3-0.4C49.7,57.7,49.6,59.7,48.7,60z M66.1,42.5
	c-1.9,1.3-4.2,0.9-5.8,0.5c0.1,0-0.1,0,0,0c2.2,1.5,2.6,4.8,2.6,4.8c-3,1.3-5.1,0.9-6.4,0.2l0,0.2c0.5,1.3,0.8,2.6,0.7,3.5
	c0.8,0.7,2.8,2.2,4.6,2.2c0,0,1.1-1.3-0.8-5c0.4,0,0.9-0.5,0.9-0.5c2,3.6,0.9,6.4,0.9,6.4c-2.4,0.2-4.3-0.7-5.8-1.9
	c-0.1,0.4-0.2,0.8-0.2,0.8c-0.5,0-1-0.2-1.4-0.2c0.1,3.3-1.1,4.4-1.1,4.4c-3.8-0.6-5.2-3.1-5.6-4.2c-0.9,0.8-1.6,0.9-1.6,0.9
	s-3.2-2.8-2.7-5.6c0-0.2,0-0.5,0.1-0.8c-1.3,1.8-3.5,2.1-3.5,2.1c-3.2-2.9-1.8-6.1-1.2-7.6s2.1-3,2.1-3l0.8,0.4c0,0-2,2.2-2.3,3.4
	c-0.3,1.2-0.9,3.6,0.8,5.4c0,0,3.1-0.8,3.9-3.8c0.6-2.1,0.7-3.8,0.7-3.8l0.8,0.2c0,0-0.1,0.6-0.3,1.9c0.2-0.4,0.6-0.9,0.6-0.9
	l0.6,1.4c0,0-1.5,2-1.9,4.4c-0.3,1.6,0.5,4.2,1.7,4.9c0,0,2.5-1.8,2.7-4c0.2-2.4,0.3-3.7,0.3-3.7l1.2-0.3c0.2,3.2-0.1,4.2-0.1,4.2
	c0.3,0.6,1.9,2.8,4.7,3c0,0,0.2-2.2-1-5.1c-1.2-1.1-2.2-3.1-2.2-3.1l0.6-1c0,0,1.4,2.3,3,3.5c0,0,2.3,1.5,5.3,0.4
	c0,0-0.6-2.4-2.4-3.5c0,0-0.5-0.3-1.4-0.8c-1.3,0.5-2.6,0.2-2.6,0.2L55.1,42c0.7,0,2.1-0.1,2.9-0.4c0.4-0.2,2.6-1.4,3.7-2.9
	c1-1.5,1.1-3.2,1.1-3.2c-0.9,0-1.7,0.2-2.4,0.4l0.5-1.2c1.5-0.3,2.8-0.3,2.8-0.3c0,0.5,0,1,0,1.5c2.4-1.2,4.9-1.4,4.9-1.4
	C69.4,38.2,67.3,41.6,66.1,42.5L66.1,42.5z M60.8,52.7c-0.2,0-1.7-0.9-2.3-1.7c-0.7-0.8-1-1.3-0.9-1.4c0.1-0.1,1.1-0.3,1.1-0.3
	s0.3,0.7,1,1.7c0.4,0.6,1.1,1.4,1.2,1.5C60.9,52.5,61.1,52.8,60.8,52.7L60.8,52.7z M89.4,60.4c-1.2,0-1.3-2-1.1-3.2l2.6,0.2
	C90.9,57.4,91.7,60.4,89.4,60.4z M95.6,59.8c-1.2,0.2-1.5-1.4-1.6-2.7l2.7-0.2C96.7,57,97.4,59.5,95.6,59.8L95.6,59.8z M108.1,53.2
	c0,0,2.3,2.7,0.7,3.2c-0.6,0.2-1.5-0.7-2.3-1.7L108.1,53.2L108.1,53.2z M102.4,56.3c0,0,1.2,2.5-0.1,3c-1.5,0.5-1.8-1.3-2.1-2.5
	L102.4,56.3z M131.6,41.1c0.8,0.9-0.4,1.7-1.2,2.5l-1.4-1.8C129,41.9,130.7,40.2,131.6,41.1L131.6,41.1z M126.2,38.8
	c0,0,1.8-1.6,2.4-0.7c0.5,0.7-0.4,1.5-1.2,2.2C127.5,40.3,126.2,38.8,126.2,38.8z M129.9,51.1c-0.3,0.6,1.1-2.5-2.4-8.9
	c0,0,2.1,1.9,3,3.4c0.9,1.5,1.6,3.7,1.6,3.7S130.2,50.5,129.9,51.1L129.9,51.1z M132.7,47.7l-1.2-1.8c0,0,2.6-1.5,2.7-0.4
	C134.3,45.9,133.6,47.1,132.7,47.7z M134.1,50.4c0,0,1.6-1.3,2-0.2c0.2,0.7,0,1.4-1.4,1.7L134.1,50.4L134.1,50.4z M26.6,56.5
	c-1.5-0.7-0.6-2.4,0.1-3.2l3,1.1C29.7,54.4,28.2,57.2,26.6,56.5L26.6,56.5z"/>
<path class="st1" d="M56.8,134.9L56.8,134.9L56.8,134.9L56.8,134.9z M122.3,138.7c-0.9-2.3-3.2-2.1-3.2-2.1c3.3-0.9,2.7-4.6,2.7-4.6
	c-4.2-1.9-7.1,0.9-7.1,0.9c-3.8-1.1-8.6,0.6-9.9,0.5c-1.1-0.1-2.7-1.2-3.6-2.1c-1.1-1.1-3.4-1.4-3.4-1.4s2.9-0.1,4,0
	c0.4,0,3.3,0.1,4.1,0.1c1.2,0,1.3,0,2.9,0c4.2-0.1,6.6-0.1,8.6-1.5c3.7-2.6,1.3-6.3,0-7c-3.1-1.6-4.7-1.2-7.3-1.2
	s-28.7,0.1-31.2,0.1s-5.7,0.2-6.6-1.4c-0.6-1,0.4-2.3,2-2.4c1.2-0.1,0.5-0.2,2.1,0.3c0.6,0.2,1.8,1.1,3.2,1.5
	c1.4,0.4,2.5-0.1,2.6-0.1l-2-2.3c0,0-0.5,0-0.9,0c-0.3,0-0.4-0.6,0-0.6c0.4,0,1.2,0,1.3,0c0.1,0.1,1.3,1.8,2.3,2.4
	c1,0.6,1.2,0.6,2,0.6h0.8c1,0,1.9-0.1,1.9-0.1l-2-2.2c0,0-0.5,0-0.9,0c-0.3,0-0.5-0.6,0-0.6c0.4,0,1.3,0,1.4,0
	c0.1,0.1,1.3,1.8,2.3,2.4c1.1,0.6,2,0.5,2.9,0.5s1.4-0.2,1.4-0.2l-2.2-2.1h-1.2c0,0-0.4-0.6,0.1-0.6h1.3c2.2,1.9,2.4,2,3,2.4
	c0.9,0.6,2.2,0.5,2.9,0.5c0.9,0,1.6-0.1,1.6-0.1l-1.7-2.1l-1.1-0.1c0,0-0.8-0.7-0.3-0.7s1.4,0,1.4,0s1.3,1.5,2.3,2.2
	c1,0.7,1,0.6,2.2,0.7c1.3,0.1,2.1-0.1,2.1-0.1l-1.3-1.5c0,0-0.6-0.7-0.7-0.7c-0.3-0.1-0.9,0-1.1,0s-0.6-0.8-0.3-0.8s1.8,0.1,1.8,0.1
	s1.5,2,2.8,2.6c1.1,0.4,1.6,0.3,2.6,0.2l1.5-0.4l-1.1-0.3c-1.1-0.4-1.6-1.2-1.6-1.2c-0.3-0.1-0.8,0-1,0s-0.6-0.8-0.3-0.8
	s1.8,0.1,1.8,0.1s0.9,1.2,1.8,1.7c0,0,1,0.3,2.5-0.6l-0.6-0.4c-0.7-0.3-0.4-0.7-0.4-0.7c0.4-0.2,0.8,0.1,0.8,0.1
	c0.4,0.2,2.5,1.7,4.7-1.9l-38.1,0c-3.2,0-6.4,0.4-7.8,2.5c-1.4,2.1-0.5,5.3,1.3,6.6c1.8,1.3,5.8,1.1,13.1,1.1
	c3.8,0,24.5-0.1,26.6-0.1c1.6,0,3.8-0.2,4.7,0.8c1.3,1.3-2,2.3-3.4,2.3c-1.5,0-2.8,0.1-6.6,0.1s-19.2-0.1-23.8,0.1
	c-3.8,0.1-7.9,0.2-9.2,0.2c0.1-0.6,0.2-1.3,0-1.9c0,0-2.1,0.1-3.4,0.7c0.1-0.6,0.1-1.2,0.1-2.1c0,0-1.5,0-3.3,0.6
	c0.1,0.9-0.6,2.7-2.9,4.6c-0.8,0.7-1.5,1.2-2.4,1.6l-0.2-0.2c-0.1-0.1-0.1-0.2-0.2-0.2c0-0.1-0.1-0.1-0.1-0.2
	c-0.2-0.2-0.3-0.4-0.4-0.5c-0.2,0.1-0.3,0.1-0.5,0.1c0,0.2,0,0.4,0,0.7c0,0.2,0,0.7,0,0.9c0,0.4,0,0.8,0,1c0,0.2-0.2,0.9-0.3,1
	l-0.7,1c0,0-0.7,0.8-1,0.7h0c-0.2,0.1-0.4,0.1-0.6,0.1c-0.1,0-0.2,0-0.3,0c-0.2,0-0.4-0.1-0.6-0.2c-0.5-0.3-1.1-0.8-1.5-2
	c0-0.1-0.2-1-0.2-1.1c0,0-2-1-3.9-2.1c0,0,0,0,0,0c-0.5-0.4-1.2-1-1.8-1.7c-0.4-0.5-0.6-0.9-0.8-1.1c-0.7-0.9-0.7-2.2-0.7-2.2
	s-1.1-0.1-2.8-2.6c-0.1-0.2-1.3-0.9-1.6-1.1l-0.1-0.1c-2.1-1.3-4.4-2.9-5.2-3.5c-1.3-0.9-1.6-2.7-0.8-4c1.1-1.8-0.3-3-0.8-3.5
	s-2.7-0.6-2.7-0.6s1.3,0.2,1.4,1.1c0.1,0.9-0.3,0.6-0.8,1.7c-0.4,0.8-0.3,1.1,0.1,1.5s0.5,1.4,0.5,1.4c-0.3-0.7-0.5-0.8-0.5-0.8
	c-0.7-0.4-0.6-1.3-0.6-1.3c-0.4-1.3-0.9-1.8-0.9-1.8l-0.5-0.4c0,0-0.7-0.4-1.6,0c-0.4,0.2-1-1.1-3.2,0.6c0,0,2.6-0.7,2.3,2
	c-0.1,1,0,1.8,0.5,2.6c0.8,1.1,2.5,1.7,2.5,1.7s-1,0.2-1.8,0.4s-0.9,0.5-1.2,1c-0.4,0.4-1.2,0.3-2,0.5s-1.4,1.5-1.4,1.5
	s0.7-0.4,1.3-0.4c0.5-0.1,0.5,0.8,1.2,1.4c0.6,0.6,1,0.4,2,0.5c1,0.1,2.1-0.8,2.9-0.9s1.2,0.3,1.6,0.7c0.4,0.4,0.2,1.4,0.8,3.6
	c0.7,2.1,1.5,2.9,2.8,2.6s2.2-1.5,2.5-2.1s0.5-0.5,0.2,0.2s-0.3,2.7,0.2,4.2s1.7,1.8,2.5,1.4c0.7-0.2,1.5-1,2-1.7
	c-0.2,0.8-0.3,1.5-0.2,2.4c0.1,0.8,0.2,1.5,0.2,1.5c0.1,0.4,0.2,1.1,0.4,1.6c0,0.1,0.1,0.2,0.1,0.4c-2.2,0.3-4.4-1.1-5.1-1.5
	c-0.8-0.4-2.2-0.9-2.9-1.4c-0.7-0.4-1.6-2.1-2-3s-1.7-2.3-2.2-2.9c-1-1.2-2.5-0.2-2.5-0.2s0.9-0.1,1.3,0.4c0.5,0.5,0.3,1.3-0.1,2
	c-0.6,1.1,0.2,1.8,0.5,2.1c0.3,0.3,0.6,0.4,0.9,0.7c0.3,0.4-0.2,0.3-0.2,0.3s-0.5-0.4-2.2-0.6c-1.8-0.1-3.2,1.9-3.2,1.9
	s0.8-0.7,1.7-0.5c0.9,0.2,0.1,1.6,1.3,2.1c0.6,0.3,1.3,0.2,1.8,0.1c0.5-0.1,0.9,0.1,1.2,0.1s0.3,0.4,0.3,0.4s-0.2,0-1.2,0.1
	s-1.2,0.5-2,0.8c-1.2,0.4-1.4,2.4-1.4,2.4s1.2-1.9,1.8-0.4c0.3,0.8,1.1,1.1,2.3,1.1c1.3,0,4.4-1.4,4.4-1.4v2.4
	c0,2.1,0.7,3.3,2.2,2.6s3-3.5,3-3.5s0,0.5,0.1,2.6c0.2,2.1,1.8,2.6,1.8,2.6s0.4,0.3,2-0.6c1.6-0.9,2.4-3.4,2.4-3.4s0.3,1.6,0.8,2.9
	c0.5,1.2,1.3,2.9,3,1.9c1.2-0.8,1.3-2.6,1.3-3.6c0,0.4,0.1,0.9,0.1,1.4c0.2,1.1,1,2.8,2.8,2.5c0.5-0.1,0.8-0.5,1-0.9
	c0.2,0,0.8,0,1,0c0,0,0.7-0.6,0.7-1.6c1.3,0.1,1.4-0.4,0.8-1.7l0.6,0.4c1.1,0.6,0.5-1.2,0.5-1.2c0.5,0.2,0.2,0.3,1.4,0.7
	c1,0.4,2.3,0.6,3.3,0.6c0,0,0.3-0.7,0.2-1.4c1.4-0.1,3.5-0.6,6.1-3.9c1.3-1.6,4.5-1.9,6.1-2c1.9-0.1,3-0.2,4-0.1
	c2.4,0.1,3.2,1.3,3.2,1.3c-1.1,2.6,0.5,4.3,0.5,4.3c1.8,2.2,7.4,2.4,7.2,2.5c-0.8,0.5-1.5,1-3.4,2c-1.9,1-5.3,2.9-5.3,2.9
	s-2.7,2.1-3.2,1.6c-0.5-0.5-0.4-0.8-0.4-1.9c0-2.4-1.2-2.8-2.6-2.9c-2.5-0.1-3.1-0.2-3.1-0.2c1.1,0.5,1.6,0.7,2,1.4
	c0.1,0.1-0.3,0.7-0.3,2c0,1.3,1.9,2,1.9,2s1.1,0.8-0.1,0.7c-1.1-0.1-1.5-0.5-2.9,0.2c-0.8,0.4-1.2,1.2-1.2,1.2
	c-1.6,0.9-1.3,2.8-1.3,2.8c1.3-2.3,2.1-1,2.1-1s1.2,0.8,2.3,0.4c1.8-0.7,1.2-0.7,2.7-1.6c0,0,0.9-0.4-0.4,0.7c0,0-2.8,1.4-1.5,3.5
	c0,0-0.5,1.6,0.2,2.4c0,0,0-1.8,1.4-1.9c0,0,3.7,0.6,3.9-1.8l0.1-0.9c2,2.6,3.9,2.3,3.9,2.3c2.3-0.6,2.3-4,2.3-4s1.9,2.9,3.9,2
	c2.3-1.1,0.6-4.6,0.6-4.6c1.7,1.4,3,1.1,3,1.1c2.9-1.2,0.4-5.1,0.4-5.1c3.1-0.5,3.2-2.1,3.2-2.1c-0.3-2.1-3.9-2.5-3.9-2.5
	s-1.5-0.4-4.9-1c-4-0.7-4.8-3.3-4.8-3.5c0,0-0.1-2.3-1-3.1c-0.1-0.1-0.9-0.7-0.9-0.8l-1.2-1v-0.1c4.3,0.8,4.8,3.5,4.8,3.5
	c1.1,1.7,0.9,2,3.9,3.3c2.9,1.3,5.9,1.2,7.7,1.2c0.7,0,2.7,0.2,4.9-0.3c0,0,2.8-0.6,4.4-1.3c0,0-0.3,3.5-0.7,4.1
	c-0.9,1.8-1.4,1.7-2.8,2.3c0,0-3.7-0.2-4,2.4c0,0-1.4,0.9-0.6,2.6c0,0,0-1.7,1.1-1.4c0,0,1.4,1.3,2.8-0.3c0.8-1.7,1.4-2.1,2.2-2.2
	c0,0-1.1,0.7-2,2.6c-0.1,0.2-0.4,0.3-0.4,0.3s-2.1,0.5-1.7,1.9l0.1,0.3c0,0-0.8,1.1,0.3,2.4c0,0-0.5-2.2,1.1-2.1
	c1.1,0.1,2.5,0.6,3-0.9c0,0-0.5-1.9,0.7-3.7c0,0,0.2-0.1,0.2,0.2s-1.7,2.9,0,4.4c0,0-0.3,1.4,1.2,2.5c0,0-1.1-1.9,0.6-1.9
	c0,0,0.2,0,0.6-0.2c0,0,2.2-1.7,1.2-4.7c0,0,2.9,1.5,3.9-0.9c0,0,0.7-0.9-1.4-2.6l-0.2-0.2c3,0.6,4.4-0.7,4.4-0.7
	c0.1-2.3-2.1-2.9-2.1-2.9C121.9,140.3,122.3,138.7,122.3,138.7L122.3,138.7z M37.3,126.6c1.2-1.6,0.7-3.4,0.7-3.4
	c-1.5-1.8-2.2,2.4-2.2,2.4s-0.4-3.9,1.2-4.4c0.8-0.3,1.2,0.2,1.8,0.9C40.4,124.1,37.3,126.6,37.3,126.6L37.3,126.6z M42.6,129.9
	c-1.5-0.6,0.1-3.8,0.1-3.8l2,0.8C44.6,126.9,43.9,130.4,42.6,129.9z M39.8,142.6c-1.1-0.2-0.3-3.3-0.1-3.4l1.9,0.4
	C41.6,139.6,40.9,142.8,39.8,142.6L39.8,142.6z M66.1,127.6c0,0-2.7,1.8-5.2,4.1l-0.6-0.5C60.3,131.1,64,127.5,66.1,127.6
	L66.1,127.6z M60.3,130.8L60.3,130.8L60.3,130.8L60.3,130.8z M64.8,130.1c2-1.7,2-4.1,2-4.1c-0.8-0.1-1.6,0.4-1.9,0.6l0.5-1.1
	c1-0.6,2.3-0.6,2.3-0.6c0,3-0.4,5.1-3.1,6.6c-2.7,1.6-4.4,1.1-4.4,1.1l-0.1-0.7C62.5,131.9,64.8,130.1,64.8,130.1L64.8,130.1z
	 M67.9,129.5c0.8-0.6,1.4-1.4,1.5-1.6c0.1-0.1,0.5-0.9,0.4-0.4c-0.1,0.4-0.3,1.8-1.3,2.8c-1.1,1-2.7,0.9-2.6,0.7
	c0.1-0.1,0.2-0.6,0.2-0.6S66.5,130.6,67.9,129.5z M59.3,132c0,0,0.8,0.7,2.3,1.8c0.9,0.7,2.6,1.4,2.8,1.4c0.2,0,0.7,0.2,0.2,0.2
	c-0.4,0-2,0-3.4-0.8C59.7,133.8,59.2,132.2,59.3,132C59.3,131.8,59.3,132,59.3,132L59.3,132z M57.4,134.9c0.2-0.1,1.1-0.8,1.1-0.8
	s0.2,1,0.6,2.8c0.2,1.1,0.8,2.1,1,2.3c0.1,0.1,0.4,0.6,0,0.3c-0.3-0.2-1.5-0.9-2-2.4C57.5,135.6,57.3,135.1,57.4,134.9L57.4,134.9z
	 M54.3,134.7c0,0,0.9,0.6,1,0.7c0.1,0.1,0.1,0.4,0,1.4c-0.2,1.1-1.3,2-1.6,2.2c-0.3,0.2-0.1-0.1,0-0.2c0.1-0.1,0.5-1.4,0.5-2.1
	C54.3,135.6,54.3,134.7,54.3,134.7L54.3,134.7z M54,134.3c0,0-0.3,0.6-0.7,1.5c-0.2,0.6-0.3,1.5-0.3,1.7c0,0.1,0,0.4-0.1,0.1
	c-0.1-0.2-0.5-1.5-0.2-2.3c0.2-0.8,0.4-1,0.5-1C53.2,134.3,54,134.3,54,134.3L54,134.3z M50.7,132.8c0.1,0.1,0,0.4-0.6,1.3
	c-0.6,0.9-1.8,1.4-2,1.5c-0.3,0.1-0.1-0.1,0-0.2c0.1-0.1,0.7-0.8,1-1.5c0.5-1.1,0.9-1.9,0.9-1.9S50.6,132.7,50.7,132.8L50.7,132.8z
	 M48.1,131.7c0.5-0.7,0.7-0.8,0.8-0.8c0.1,0,0.9,0.6,0.9,0.6s-0.5,0.5-1.2,1.2c-0.4,0.4-1.1,1.7-1.1,1.8c0,0.1-0.1,0.4-0.1,0.1
	C47.4,134.3,47.6,132.4,48.1,131.7z M45.9,131.8c0.1-1.8,1.1-4.4,1-3.8l1.1,1.2l-0.1,0.2c-1,0.7-1.4,2.4-1.5,3.7
	c0,0.4-0.1,1.9-0.5,0.6C45.8,132.8,45.9,131.9,45.9,131.8L45.9,131.8z M45.9,144c-1.2-0.2-0.5-3.5-0.5-3.5l2.4,0.4
	C47.8,140.8,47.1,144.2,45.9,144z M52.5,145.2c-1.2,0.2-0.9-3.6-0.9-3.6h0.9c0.2,0.3,0.5,0.5,0.9,0.8c0,0,0,0,0,0
	C53.5,143.3,53.4,145.1,52.5,145.2L52.5,145.2z M53.3,142.1c0,0-3.1-2.9-2.7-5.2c0.2-0.9,0.5-1.7,0.9-2.5c-1,1.9-3.9,3.8-3.9,3.8
	c-0.9-0.8-1.4-1.6-1.6-2.4c0,0,0,0.1,0.1,0.1c0.1-0.2,0.5-0.8,0.7-1.2c0,0.8,0.2,1.4,1,2.2c1.8-0.9,2.7-2.4,2.9-3.1
	c0.5-1.7,0.6-2.9,0.6-2.9l0.9,0.3c0,0,0.2,0.6-0.5,2.7c0,0.1-0.1,0.2-0.2,0.4c0.6-1.2,1.3-2.1,1.3-2.1l0.6,0.9c0,0-1.7,2.3-1.8,4.3
	c0,0.9,0.5,2.4,1.9,3.4c0,0,2-1.1,2.2-3.5c0.2-2,0-2.1,0-2.1l1-0.1c0.3,1.8,0,2.8,0,2.8C55.6,142.4,53.3,142.1,53.3,142.1
	L53.3,142.1z M57,139.2c0,0,0.4,1.1,1,2.6c0.4,0.9,0.4,0.9,0.7,1.4c0.1,0.1,0.5,0.5,0,0.2c-0.3-0.1-1.2-0.5-1.9-1.8
	c-0.7-1.2-0.6-1.8-0.5-1.9C56.4,139.6,57,139.2,57,139.2L57,139.2z M59.4,145c-4.2-0.7-4.7-3.4-4.7-3.4l0.6-0.6
	c0.3,0.6,1.3,2.6,3.7,3c0,0,0.9-0.8,0.5-2.9h1C60.7,143.6,59.4,145,59.4,145L59.4,145z M61.4,140.9c-2.8,0.3-4-1.4-4.8-2.4l0.4-1.1
	c0,0,1.2,2.6,3.7,2.7c0,0,0.4-1.7-0.7-4.2l0.7,0.3l0.5,0.3C61.6,137.1,62.1,139,61.4,140.9z M60.9,136.1c-1.2-0.6-2.5-2.5-2.5-2.5
	l0.5-0.9c0,0,1.3,1.8,2.3,2.5c0,0,1.8,1.4,4.4,0.9c0,0-0.9-2.1-2.4-3.1c0,0-0.4-0.3-1-0.5l1.3-0.4c-0.1-0.1,0.3,0.1,0.8,0.3
	c1.9,1.2,2.3,4.2,2.3,4.2C63.9,137.7,62,136.8,60.9,136.1L60.9,136.1z M64.9,140.2c-0.2,0-1.5-0.5-2.1-1.1c-0.6-0.6-0.7-0.8-0.6-0.9
	c0.1-0.1,0.6-0.8,0.6-0.8s0.4,0.6,0.9,1.4c0.3,0.5,1,1.3,1.1,1.4C64.9,140.1,65.2,140.2,64.9,140.2L64.9,140.2z M66.7,142.3
	c-2.1,0.1-3.7-0.9-5-1.9c0,0,0.2-0.9,0.2-1.1c0.5,0.6,1.8,2.1,4.2,2.1c0,0,0.1-2.5-1.3-4.1c0.3,0,1.1-0.3,1.1-0.3
	C67.4,139.9,66.7,142.3,66.7,142.3L66.7,142.3z M69.4,132c-2.6,1.7-5.9,0.1-5.9,0.1l1.1-0.5c3.2,0.6,4.1-0.4,4.1-0.4
	c1.9-1.4,2.1-4.3,2.1-4.3c-1.6,0.2-2.2,0.6-2.9,0.9l0.2-1.1c1.7-0.9,3.7-1,3.7-1C71.8,128.4,70.5,131.2,69.4,132L69.4,132z
	 M88.7,156.1c-1.1,0.5-1.7-0.8-2.2-1.8l2.5-0.9C89.1,153.4,90.3,155.4,88.7,156.1L88.7,156.1z M99.1,143.3c0,0,1.9,0.2,1.9,1.1
	c0.1,1.2-1.4,1.4-2.2,1.2L99.1,143.3z M98.3,147.8c0,0,1.4,2,0.5,2.8c-0.9,0.8-2.2,0.1-2.7-1L98.3,147.8z M94.7,154.2
	c-1,0.4-2.3-0.8-2.6-1.9l2.5-1.3C94.6,151,96.2,153.6,94.7,154.2z M114.1,145.8l-1.3-0.9c1-0.7,3.4-6.1,3.4-6.1
	C116.5,142.7,114.1,145.8,114.1,145.8z M117,146.6c0,0-0.9,0.8-2.3,0.1c0,0,0.9-0.9,1.1-1.7C115.8,145,117,145.4,117,146.6z
	 M116.3,133.8c0,0,1.3-1.6,3.9-0.7c0,0,0.1,1.9-1.9,2.8C118.3,135.9,117.9,134.6,116.3,133.8L116.3,133.8z M119.5,142.5
	c0,0-1.6,0.8-2.7,0.4c0,0,1-0.9,1.3-1.9C118.1,141,119.3,141.3,119.5,142.5L119.5,142.5z M118.4,139.1c0,0,0.6-0.9,0.4-1.8
	c0,0,1.4,0.1,1.9,1.2C120.8,138.5,119.4,139.4,118.4,139.1L118.4,139.1z"/>
<g class="st2">
	<path class="st0" d="M245,70.6c0,0,6.3,7.5,15.6,7.5c5.8,0,10.7-3.5,10.7-9.2c0-13-30-11-30-30.4c0-9.3,8.2-16.6,19.9-16.6
		c6.6,0,17.7,3,17.7,11.5v5.1h-8.1v-2.9c0-3.3-4.7-5.6-9.6-5.6c-6.7,0-10.9,3.7-10.9,8.4c0,12.6,29.9,9.8,29.9,30.2
		c0,9.5-7.4,17.7-19.7,17.7c-13.2,0-20.6-9.2-20.6-9.2L245,70.6z"/>
</g>
<g class="st2">
	<path class="st0" d="M291.6,47.4h-5.8v-6.9h6V28.2h8.4v12.2h10.7v6.9h-10.7v20.4c0,8.9,6.2,10,9.4,10c1.2,0,2-0.2,2-0.2v7.6
		c0,0-1.1,0.2-3,0.2c-5.6,0-17-1.8-17-16.6V47.4z"/>
</g>
<g class="st2">
	<path class="st0" d="M344.4,57.3h1.9v-0.4c0-7.8-2.9-10.7-9.9-10.7c-2.1,0-7.3,0.5-7.3,3.4v2.6h-8v-4.4c0-7.3,11.1-8.4,15.4-8.4
		c14.4,0,18.3,7.6,18.3,17.4v18.9c0,1.3,0.7,1.9,1.9,1.9h3.6V85h-8c-4,0-5.5-1.9-5.5-5.1c0-1.5,0.2-2.6,0.2-2.6h-0.2
		c0,0-3.5,8.8-14.2,8.8c-7.7,0-15.1-4.7-15.1-13.6C317.6,58.2,336.9,57.3,344.4,57.3z M334.6,79.2c7.2,0,11.9-7.6,11.9-14.2v-1.5
		h-2.2c-6.4,0-18.1,0.4-18.1,8.5C326.2,75.7,328.9,79.2,334.6,79.2z"/>
</g>
<g class="st2">
	<path class="st0" d="M370.1,47.4h-5.8v-6.9h6V28.2h8.4v12.2h10.7v6.9h-10.7v20.4c0,8.9,6.2,10,9.4,10c1.2,0,2-0.2,2-0.2v7.6
		c0,0-1.1,0.2-3,0.2c-5.6,0-17-1.8-17-16.6V47.4z"/>
</g>
<g class="st2">
	<path class="st0" d="M418,39.4c12.5,0,19.2,9.3,19.2,20.9c0,1.1-0.3,3.5-0.3,3.5h-32.5c0.5,9.5,7.4,14.9,15.3,14.9
		c7.7,0,13-5.2,13-5.2l3.7,6.1c0,0-6.6,6.5-17.2,6.5c-14.1,0-23.7-10.1-23.7-23.3C395.6,48.6,405.3,39.4,418,39.4z M428.4,57.6
		c-0.3-7.4-4.9-11.4-10.5-11.4c-6.5,0-11.8,4-13.1,11.4H428.4z"/>
	<path class="st0" d="M447.8,72.5c0,0,5.3,6.6,13.5,6.6c4.1,0,7.8-1.8,7.8-5.7c0-8-24.3-7.1-24.3-21.5c0-8.5,7.5-12.5,16.6-12.5
		c5.4,0,14.6,1.8,14.6,8.6v4.2h-7.7v-2.2c0-2.6-4-3.8-6.7-3.8c-5,0-8.3,1.8-8.3,5.3c0,8.5,24.3,6.6,24.3,21.5c0,7.9-7,13-16.4,13
		c-11.9,0-17.8-7.8-17.8-7.8L447.8,72.5z"/>
	<path class="st0" d="M505.8,77.5h1.2c1.6,0,2.4-0.4,2.9-1.9l19.5-52.7h9.2l19.5,52.7c0.5,1.6,1.4,1.9,2.9,1.9h1.3V85h-4.9
		c-4.4,0-5.8-1.1-7.2-5.1l-4.7-12.8h-22.9l-4.7,12.8c-1.5,4.1-2.9,5.1-7.3,5.1h-4.8V77.5z M543.3,59.8l-6.8-18.9
		c-1.1-3.3-2.5-8.7-2.5-8.7h-0.2c0,0-1.2,5.5-2.4,8.7l-6.8,18.9H543.3z"/>
	<path class="st0" d="M570.1,72.5c0,0,5.3,6.6,13.5,6.6c4.1,0,7.8-1.8,7.8-5.7c0-8-24.3-7.1-24.3-21.5c0-8.5,7.5-12.5,16.6-12.5
		c5.4,0,14.6,1.8,14.6,8.6v4.2h-7.7v-2.2c0-2.6-4-3.8-6.7-3.8c-5,0-8.3,1.8-8.3,5.3c0,8.5,24.3,6.6,24.3,21.5c0,7.9-7,13-16.4,13
		c-11.9,0-17.8-7.8-17.8-7.8L570.1,72.5z"/>
	<path class="st0" d="M610,72.5c0,0,5.3,6.6,13.5,6.6c4.1,0,7.8-1.8,7.8-5.7c0-8-24.3-7.1-24.3-21.5c0-8.5,7.5-12.5,16.6-12.5
		c5.4,0,14.6,1.8,14.6,8.6v4.2h-7.7v-2.2c0-2.6-4-3.8-6.7-3.8c-5,0-8.3,1.8-8.3,5.3c0,8.5,24.3,6.6,24.3,21.5c0,7.9-7,13-16.4,13
		c-11.9,0-17.8-7.8-17.8-7.8L610,72.5z"/>
	<path class="st0" d="M668.8,39.4c12.5,0,19.2,9.3,19.2,20.9c0,1.1-0.3,3.5-0.3,3.5h-32.5c0.5,9.5,7.4,14.9,15.3,14.9
		c7.7,0,13-5.2,13-5.2l3.7,6.1c0,0-6.6,6.5-17.2,6.5c-14.1,0-23.7-10.1-23.7-23.3C646.4,48.6,656.1,39.4,668.8,39.4z M679.2,57.6
		c-0.3-7.4-4.9-11.4-10.5-11.4c-6.5,0-11.8,4-13.1,11.4H679.2z"/>
	<path class="st0" d="M699.3,49.7c0-1.3-0.7-1.9-1.9-1.9h-3.6v-7.3h8.2c3.9,0,5.6,1.7,5.6,4.9v1.7c0,1.4-0.1,2.6-0.1,2.6h0.2
		c2.1-5.2,8.3-10.2,15.2-10.2c7.6,0,11.9,3.4,13.4,10.1h0.2c2.5-5.4,8.6-10.1,15.9-10.1c10,0,14.7,5.7,14.7,17.1v19.3
		c0,1.3,0.7,1.9,1.9,1.9h3.6V85h-8.5c-4,0-5.6-1.7-5.6-5.6v-21c0-6.3-1.2-11.2-7.8-11.2c-6.2,0-10.9,5.4-12.5,11.5
		c-0.4,1.8-0.7,3.8-0.7,6.1V85h-8.5V58.4c0-5.8-0.9-11.2-7.7-11.2c-6.5,0-11.1,5.5-12.8,11.8c-0.4,1.8-0.6,3.7-0.6,5.7V85h-8.5V49.7
		z"/>
</g>
<g class="st2">
	<path class="st0" d="M781.5,32.1c0-1.3-0.7-1.9-1.9-1.9H776v-7.3h8.5c4,0,5.6,1.7,5.6,5.6V43c0,2.1-0.2,3.7-0.2,3.7h0.2
		c0,0,3.9-7.3,14.4-7.3c12,0,19.6,9.5,19.6,23.3c0,14.2-8.5,23.3-20.3,23.3c-10,0-14-7.5-14-7.5h-0.2c0,0,0.2,1.4,0.2,3.3V85h-8.2
		V32.1z M802.5,78.8c7,0,12.9-5.8,12.9-15.9c0-9.7-5.2-15.9-12.7-15.9c-6.6,0-12.8,4.7-12.8,16C789.9,70.9,794,78.8,802.5,78.8z"/>
</g>
<g class="st2">
	<path class="st0" d="M833.7,32.1c0-1.3-0.7-1.9-1.9-1.9h-3.6v-7.3h8.5c4,0,5.6,1.7,5.6,5.6v47.3c0,1.3,0.7,1.9,1.9,1.9h3.6V85h-8.5
		c-4,0-5.6-1.7-5.6-5.6V32.1z"/>
	<path class="st0" d="M860.5,96.1c3.4,0,6.2-2.5,7.8-6.4l2-4.8l-15.2-35.3c-0.6-1.4-1.4-1.8-2.8-1.8h-1.1v-7.3h5
		c3.6,0,4.9,1,6.3,4.5l10.1,25.1c0.9,2.3,1.6,5.4,1.6,5.4h0.2c0,0,0.6-3.1,1.5-5.4l9.2-25.1c1.3-3.5,2.9-4.5,6.5-4.5h5.1v7.3h-1.1
		c-1.4,0-2.2,0.4-2.8,1.8l-17.6,43.5c-2.7,6.9-8.1,10.5-14.4,10.5c-6.6,0-10.5-4.4-10.5-4.4L854,93C854,93.1,856.7,96.1,860.5,96.1z
		"/>
</g>
<g class="st2">
	<path class="st0" d="M242.7,142.2h3.7v1.3c0,5.9,3.5,7.8,6.8,7.8c3.3,0,6.7-2,6.7-7.7v-22.3c0-0.8-0.4-1.2-1.2-1.2h-9.2v-3.3h10.9
		c2.3,0,3.2,1,3.2,3.2v23.6c0,8.1-5.4,11.1-10.5,11.1c-5.1,0-10.5-3.1-10.5-11.1V142.2z"/>
	<path class="st0" d="M283.4,126.8c7.4,0,11.2,5.7,11.2,12.3c0,0.6-0.1,1.8-0.1,1.8H274c0.1,6.7,4.8,10.6,10.3,10.6
		c4.9,0,8-3.3,8-3.3l1.8,2.7c0,0-3.9,3.8-9.9,3.8c-7.9,0-13.9-5.7-13.9-13.9C270.3,132.1,276.3,126.8,283.4,126.8z M290.9,138
		c-0.2-5.5-3.6-8.2-7.5-8.2c-4.4,0-8.3,2.9-9.2,8.2H290.9z"/>
	<path class="st0" d="M301.8,131.7c0-0.7-0.4-1.2-1.2-1.2h-2.2v-3.1h3.7c2.2,0,3.2,0.9,3.2,3v1.8c0,1.1-0.1,2-0.1,2h0.1
		c1.3-4,4.2-7.1,8.4-7.1c0.7,0,1.4,0.2,1.4,0.2v3.6c0,0-0.6-0.1-1.3-0.1c-3.8,0-6.6,3-7.7,6.9c-0.5,1.7-0.7,3.5-0.7,5.2v11.2h-3.6
		V131.7z"/>
	<path class="st0" d="M320,147.6c0,0,3,4,8.2,4c3,0,5.6-1.4,5.6-4.2c0-5.8-15-4.8-15-13.4c0-4.8,4.1-7.2,9.5-7.2
		c2.7,0,8.1,1.1,8.1,4.8v2.3h-3.4v-1.3c0-2-2.9-2.7-4.6-2.7c-3.7,0-5.9,1.3-5.9,3.9c0,6,15,4.6,15,13.5c0,4.5-4,7.5-9.3,7.5
		c-6.9,0-10.2-4.7-10.2-4.7L320,147.6z"/>
	<path class="st0" d="M355,126.8c7.4,0,11.2,5.7,11.2,12.3c0,0.6-0.1,1.8-0.1,1.8h-20.5c0.1,6.7,4.8,10.6,10.3,10.6
		c4.9,0,8-3.3,8-3.3l1.8,2.7c0,0-3.9,3.8-9.9,3.8c-7.9,0-13.9-5.7-13.9-13.9C341.9,132.1,347.9,126.8,355,126.8z M362.5,138
		c-0.2-5.5-3.6-8.2-7.5-8.2c-4.4,0-8.3,2.9-9.2,8.2H362.5z"/>
</g>
<g class="st2">
	<path class="st0" d="M374.9,162c2.3,0,3.9-1.9,4.9-4.3l1.6-3.7l-9.4-22.2c-0.4-1-0.9-1.2-1.9-1.2h-0.5v-3.1h1.6
		c2.4,0,3.1,0.5,4.1,2.9l6.8,16.6c0.5,1.3,1,2.9,1,2.9h0.1c0,0,0.4-1.5,0.9-2.9l6.6-16.6c0.9-2.4,1.7-2.9,4.1-2.9h1.6v3.1H396
		c-1,0-1.5,0.3-1.9,1.2l-11.5,27.9c-1.4,3.4-4.1,5.6-7.6,5.6c-3.7,0-5.8-2.6-5.8-2.6l1.7-2.7C370.9,160,372.6,162,374.9,162z"/>
</g>
<g class="st2">
	<path class="st0" d="M403.7,116.3h3.8l-3,9.1h-2.9L403.7,116.3z"/>
</g>
<g class="st2">
	<path class="st0" d="M411.4,147.6c0,0,3,4,8.2,4c3,0,5.6-1.4,5.6-4.2c0-5.8-15-4.8-15-13.4c0-4.8,4.1-7.2,9.5-7.2
		c2.7,0,8.1,1.1,8.1,4.8v2.3h-3.4v-1.3c0-2-2.9-2.7-4.6-2.7c-3.7,0-5.9,1.3-5.9,3.9c0,6,15,4.6,15,13.5c0,4.5-4,7.5-9.3,7.5
		c-6.9,0-10.2-4.7-10.2-4.7L411.4,147.6z"/>
	<path class="st0" d="M460.8,126.8c7.4,0,11.2,5.7,11.2,12.3c0,0.6-0.1,1.8-0.1,1.8h-20.5c0.1,6.7,4.8,10.6,10.3,10.6
		c4.9,0,8-3.3,8-3.3l1.8,2.7c0,0-3.9,3.8-9.9,3.8c-7.9,0-13.9-5.7-13.9-13.9C447.6,132.1,453.6,126.8,460.8,126.8z M468.3,138
		c-0.2-5.5-3.6-8.2-7.5-8.2c-4.4,0-8.3,2.9-9.2,8.2H468.3z"/>
	<path class="st0" d="M479.1,121.1c0-0.7-0.4-1.2-1.2-1.2h-2.2v-3.1h3.8c2.3,0,3.2,1,3.2,3.2v29.7c0,0.8,0.4,1.2,1.2,1.2h2.2v3.1
		h-3.8c-2.3,0-3.2-1-3.2-3.2V121.1z"/>
	<path class="st0" d="M502.8,126.8c7.4,0,11.2,5.7,11.2,12.3c0,0.6-0.1,1.8-0.1,1.8h-20.5c0.1,6.7,4.8,10.6,10.3,10.6
		c4.9,0,8-3.3,8-3.3l1.8,2.7c0,0-3.9,3.8-9.9,3.8c-7.9,0-13.9-5.7-13.9-13.9C489.7,132.1,495.7,126.8,502.8,126.8z M510.3,138
		c-0.2-5.5-3.6-8.2-7.5-8.2c-4.4,0-8.3,2.9-9.2,8.2H510.3z"/>
	<path class="st0" d="M532.8,126.8c3,0,9.5,1.3,9.5,5.7v2.4h-3.4v-1.5c0-2.2-3.9-3.3-6.1-3.3c-5.7,0-10.3,4.3-10.3,10.8
		c0,6.6,4.8,10.7,10.4,10.7c5.5,0,8.6-3.8,8.6-3.8l1.7,2.7c0,0-3.6,4.3-10.4,4.3c-8,0-14-5.7-14-13.9
		C518.7,132.6,524.8,126.8,532.8,126.8z"/>
</g>
<g class="st2">
	<path class="st0" d="M549.6,130.5h-3.5v-3h3.6v-7.4h3.6v7.4h6.7v3h-6.7V144c0,6.3,4,7.1,6,7.1c0.7,0,1.2-0.1,1.2-0.1v3.2
		c0,0-0.6,0.1-1.5,0.1c-3.1,0-9.3-1-9.3-9.9V130.5z"/>
</g>
<g class="st2">
	<path class="st0" d="M577.1,126.8c7.4,0,11.2,5.7,11.2,12.3c0,0.6-0.1,1.8-0.1,1.8h-20.5c0.1,6.7,4.8,10.6,10.3,10.6
		c4.9,0,8-3.3,8-3.3l1.8,2.7c0,0-3.9,3.8-9.9,3.8c-7.9,0-13.9-5.7-13.9-13.9C564,132.1,570,126.8,577.1,126.8z M584.6,138
		c-0.2-5.5-3.6-8.2-7.5-8.2c-4.4,0-8.3,2.9-9.2,8.2H584.6z"/>
	<path class="st0" d="M605.1,126.8c6.5,0,8.7,5,8.7,5h0.1c0,0-0.1-0.9-0.1-2v-8.6c0-0.7-0.4-1.2-1.2-1.2h-2.2v-3.1h3.8
		c2.3,0,3.2,1,3.2,3.2v29.7c0,0.8,0.4,1.2,1.2,1.2h2.2v3.1h-3.7c-2.2,0-3.2-1-3.2-3c0-1,0.1-1.7,0.1-1.7h-0.1c0,0-2.2,5.3-9.2,5.3
		c-7.2,0-11.6-5.7-11.6-14C593.1,132.3,598.1,126.8,605.1,126.8z M613.9,140.7c0-5.4-2.8-10.7-8.5-10.7c-4.7,0-8.6,4-8.6,10.7
		c0,6.6,3.4,10.8,8.4,10.8C609.7,151.5,613.9,148.3,613.9,140.7z"/>
</g>
<g class="st2">
	<path class="st0" d="M641.1,131.7c0-0.7-0.4-1.2-1.2-1.2h-2.2v-3.1h3.7c2.3,0,3.2,1,3.2,2.8c0,1.1-0.1,1.8-0.1,1.8h0.1
		c0,0,2.1-5.2,9.2-5.2c7.2,0,11.6,5.7,11.6,14c0,8.4-5,13.9-11.9,13.9c-6.5,0-8.7-5-8.7-5h-0.1c0,0,0.1,1,0.1,2.3v12.7h-3.6V131.7z
		 M653.1,151.6c4.7,0,8.6-4,8.6-10.8c0-6.5-3.4-10.7-8.4-10.7c-4.5,0-8.6,3.2-8.6,10.8C644.6,146.2,647.6,151.6,653.1,151.6z"/>
</g>
<g class="st2">
	<path class="st0" d="M685.9,137.7h1.5v-0.3c0-5.6-2-7.5-6.9-7.5c-1.3,0-5.2,0.4-5.2,2.3v1.7h-3.4v-2.5c0-3.7,6.4-4.5,8.7-4.5
		c8.4,0,10.4,4.5,10.4,10.2v12.8c0,0.8,0.4,1.2,1.2,1.2h2.2v3.1h-3.7c-2.3,0-3.2-1-3.2-3.2c0-1.2,0.1-2,0.1-2h-0.1
		c0.1,0-2.2,5.8-8.9,5.8c-4.5,0-9.1-2.6-9.1-7.9C669.5,138,681.2,137.7,685.9,137.7z M679.2,151.7c5.1,0,8.2-5.3,8.2-9.9v-1.2h-1.5
		c-4.2,0-12.6,0.1-12.6,6.1C673.2,149.1,675.2,151.7,679.2,151.7z"/>
</g>
<g class="st2">
	<path class="st0" d="M700.1,131.7c0-0.7-0.4-1.2-1.2-1.2h-2.2v-3.1h3.7c2.2,0,3.2,0.9,3.2,3v1.8c0,1.1-0.1,2-0.1,2h0.1
		c1.3-4,4.2-7.1,8.4-7.1c0.7,0,1.4,0.2,1.4,0.2v3.6c0,0-0.6-0.1-1.3-0.1c-3.8,0-6.6,3-7.7,6.9c-0.5,1.7-0.7,3.5-0.7,5.2v11.2h-3.6
		V131.7z"/>
</g>
<g class="st2">
	<path class="st0" d="M718.6,121.1c0-0.7-0.4-1.2-1.2-1.2h-2.2v-3.1h3.8c2.3,0,3.2,1,3.2,3.2v29.7c0,0.8,0.4,1.2,1.2,1.2h2.2v3.1
		h-3.8c-2.3,0-3.2-1-3.2-3.2V121.1z"/>
	<path class="st0" d="M731.9,131.7c0-0.7-0.4-1.2-1.2-1.2h-2.2v-3.1h3.8c2.3,0,3.2,1,3.2,3.2v19.1c0,0.8,0.4,1.2,1.2,1.2h2.2v3.1
		h-3.8c-2.3,0-3.2-1-3.2-3.2V131.7z M731.8,116.8h3.5v4.6h-3.5V116.8z"/>
	<path class="st0" d="M758.8,137.7h1.5v-0.3c0-5.6-2-7.5-6.9-7.5c-1.3,0-5.2,0.4-5.2,2.3v1.7h-3.4v-2.5c0-3.7,6.4-4.5,8.7-4.5
		c8.4,0,10.4,4.5,10.4,10.2v12.8c0,0.8,0.4,1.2,1.2,1.2h2.2v3.1h-3.7c-2.3,0-3.2-1-3.2-3.2c0-1.2,0.1-2,0.1-2h-0.1
		c0.1,0-2.2,5.8-8.9,5.8c-4.5,0-9.1-2.6-9.1-7.9C742.5,138,754.2,137.7,758.8,137.7z M752.1,151.7c5.1,0,8.2-5.3,8.2-9.9v-1.2h-1.5
		c-4.2,0-12.6,0.1-12.6,6.1C746.2,149.1,748.2,151.7,752.1,151.7z"/>
	<path class="st0" d="M773,131.7c0-0.7-0.4-1.2-1.2-1.2h-2.2v-3.1h3.7c2.2,0,3.2,1,3.2,3v1.2c0,1.1-0.1,1.9-0.1,1.9h0.1
		c1.3-3.6,5.5-6.7,9.7-6.7c4.9,0,7.5,2.3,8.3,6.7h0.1c1.4-3.6,5.3-6.7,9.8-6.7c6.5,0,8.9,3.8,8.9,10.3v12.7c0,0.8,0.4,1.2,1.2,1.2
		h2.2v3.1h-3.8c-2.3,0-3.2-1-3.2-3.2V138c0-4.3-0.9-8-5.8-8c-4,0-7.4,3.6-8.4,7.5c-0.4,1.2-0.5,2.4-0.5,3.9v12.6h-3.6V138
		c0-4-0.6-8-5.6-8c-4.3,0-7.6,3.8-8.7,7.8c-0.3,1.1-0.4,2.3-0.4,3.6v12.6H773V131.7z"/>
	<path class="st0" d="M833.1,126.8c7.4,0,11.2,5.7,11.2,12.3c0,0.6-0.1,1.8-0.1,1.8h-20.5c0.1,6.7,4.8,10.6,10.3,10.6
		c4.9,0,8-3.3,8-3.3l1.8,2.7c0,0-3.9,3.8-9.9,3.8c-7.9,0-13.9-5.7-13.9-13.9C819.9,132.1,825.9,126.8,833.1,126.8z M840.5,138
		c-0.2-5.5-3.6-8.2-7.5-8.2c-4.4,0-8.3,2.9-9.2,8.2H840.5z"/>
	<path class="st0" d="M851.5,131.7c0-0.7-0.4-1.2-1.2-1.2h-2.2v-3.1h3.7c2.2,0,3.2,1,3.2,3v1.2c0,1.1-0.1,1.9-0.1,1.9h0.1
		c1-2.4,4.3-6.7,10.6-6.7c6.6,0,9,3.8,9,10.3v12.7c0,0.8,0.4,1.2,1.2,1.2h2.2v3.1h-3.8c-2.3,0-3.2-1-3.2-3.2v-12.8
		c0-4.2-0.6-7.9-5.8-7.9c-4.6,0-8.5,3.1-9.7,7.5c-0.3,1.1-0.4,2.3-0.4,3.6v12.8h-3.6V131.7z"/>
	<path class="st0" d="M884,130.5h-3.5v-3h3.6v-7.4h3.6v7.4h6.7v3h-6.7V144c0,6.3,4,7.1,6,7.1c0.7,0,1.2-0.1,1.2-0.1v3.2
		c0,0-0.6,0.1-1.5,0.1c-3.1,0-9.3-1-9.3-9.9V130.5z"/>
</g>
</svg>
